<svg version="1.1" xmlns="http://www.w3.org/2000/svg" xmlns:xlink="http://www.w3.org/1999/xlink" width="744.99169921875" height="541">
    <defs />
    <g>
        <g transform="translate(-158,-358) scale(1,1)">
            <rect fill="#C0C0C0" stroke="none" x="487" y="567" width="27.5966796875" height="15" opacity="0.2" />
        </g>
        <g transform="translate(-158,-358) scale(1,1)">
            <rect fill="#C0C0C0" stroke="none" x="487" y="581" width="68.99169921875" height="25" opacity="0.2" />
        </g>
        <g transform="translate(-158,-358) scale(1,1)">
            <rect fill="#ffadad" stroke="none" x="480" y="575" width="68.99169921875" height="24" />
        </g>
        <g transform="translate(-158,-358) scale(1,1)">
            <path fill="none" stroke="#000000" d="M 480 575 L 548.99169921875 575 L 548.99169921875 599 L 480 599 L 480 575 Z Z" stroke-miterlimit="10" />
        </g>
        <g transform="translate(-158,-358) scale(1,1)">
            <rect fill="#ffadad" stroke="none" x="480" y="560" width="27.5966796875" height="15" />
        </g>
        <g transform="translate(-158,-358) scale(1,1)">
            <path fill="none" stroke="#000000" d="M 480 560 L 507.5966796875 560 L 507.5966796875 575 L 480 575 L 480 560 Z Z" stroke-miterlimit="10" />
        </g>
        <g transform="translate(-158,-358) scale(1,1)">
            <rect fill="#ffadad" stroke="none" x="480" y="574" width="68.99169921875" height="25" />
        </g>
        <g transform="translate(-158,-358) scale(1,1)">
            <path fill="none" stroke="#000000" d="M 480 574 L 548.99169921875 574 L 548.99169921875 599 L 480 599 L 480 574 Z Z" stroke-miterlimit="10" />
        </g>
        <g transform="translate(-158,-358) scale(1,1)">
            <g>
                <path fill="none" stroke="none" />
                <text fill="#000000" stroke="none" font-family="Arial" font-size="13px" font-style="normal" font-weight="bold" text-decoration="none" x="493.17724609375" y="594.5">Modele</text>
            </g>
        </g>
        <g transform="translate(-158,-358) scale(1,1)">
            <rect fill="#C0C0C0" stroke="none" x="175" y="463" width="50.6005859375" height="15" opacity="0.2" />
        </g>
        <g transform="translate(-158,-358) scale(1,1)">
            <rect fill="#C0C0C0" stroke="none" x="175" y="477" width="126.50146484375" height="25" opacity="0.2" />
        </g>
        <g transform="translate(-158,-358) scale(1,1)">
            <rect fill="#e2e2e2" stroke="none" x="168" y="471" width="126.50146484375" height="24" />
        </g>
        <g transform="translate(-158,-358) scale(1,1)">
            <path fill="none" stroke="#000000" d="M 168 471 L 294.50146484375 471 L 294.50146484375 495 L 168 495 L 168 471 Z Z" stroke-miterlimit="10" />
        </g>
        <g transform="translate(-158,-358) scale(1,1)">
            <rect fill="#e2e2e2" stroke="none" x="168" y="456" width="50.6005859375" height="15" />
        </g>
        <g transform="translate(-158,-358) scale(1,1)">
            <path fill="none" stroke="#000000" d="M 168 456 L 218.6005859375 456 L 218.6005859375 471 L 168 471 L 168 456 Z Z" stroke-miterlimit="10" />
        </g>
        <g transform="translate(-158,-358) scale(1,1)">
            <rect fill="#e2e2e2" stroke="none" x="168" y="470" width="126.50146484375" height="25" />
        </g>
        <g transform="translate(-158,-358) scale(1,1)">
            <path fill="none" stroke="#000000" d="M 168 470 L 294.50146484375 470 L 294.50146484375 495 L 168 495 L 168 470 Z Z" stroke-miterlimit="10" />
        </g>
        <g transform="translate(-158,-358) scale(1,1)">
            <g>
                <path fill="none" stroke="none" />
                <text fill="#000000" stroke="none" font-family="Arial" font-size="13px" font-style="normal" font-weight="bold" text-decoration="none" x="177.77490234375" y="490.5">Tests_fonctionnels</text>
            </g>
        </g>
        <g transform="translate(-158,-358) scale(1,1)">
            <rect fill="#C0C0C0" stroke="none" x="479" y="375" width="41.9423828125" height="15" opacity="0.2" />
        </g>
        <g transform="translate(-158,-358) scale(1,1)">
            <rect fill="#C0C0C0" stroke="none" x="479" y="389" width="104.85595703125" height="25" opacity="0.2" />
        </g>
        <g transform="translate(-158,-358) scale(1,1)">
            <rect fill="#e2e2e2" stroke="none" x="472" y="383" width="104.85595703125" height="24" />
        </g>
        <g transform="translate(-158,-358) scale(1,1)">
            <path fill="none" stroke="#000000" d="M 472 383 L 576.85595703125 383 L 576.85595703125 407 L 472 407 L 472 383 Z Z" stroke-miterlimit="10" />
        </g>
        <g transform="translate(-158,-358) scale(1,1)">
            <rect fill="#e2e2e2" stroke="none" x="472" y="368" width="41.9423828125" height="15" />
        </g>
        <g transform="translate(-158,-358) scale(1,1)">
            <path fill="none" stroke="#000000" d="M 472 368 L 513.9423828125 368 L 513.9423828125 383 L 472 383 L 472 368 Z Z" stroke-miterlimit="10" />
        </g>
        <g transform="translate(-158,-358) scale(1,1)">
            <rect fill="#e2e2e2" stroke="none" x="472" y="382" width="104.85595703125" height="25" />
        </g>
        <g transform="translate(-158,-358) scale(1,1)">
            <path fill="none" stroke="#000000" d="M 472 382 L 576.85595703125 382 L 576.85595703125 407 L 472 407 L 472 382 Z Z" stroke-miterlimit="10" />
        </g>
        <g transform="translate(-158,-358) scale(1,1)">
            <g>
                <path fill="none" stroke="none" />
                <text fill="#000000" stroke="none" font-family="Arial" font-size="13px" font-style="normal" font-weight="bold" text-decoration="none" x="479.994384765625" y="402.5">Tests_Unitaires</text>
            </g>
        </g>
        <g transform="translate(-158,-358) scale(1,1)">
            <path fill="none" stroke="#000000" d="M 523 408 L 515 559" stroke-miterlimit="10" stroke-dasharray="3" />
        </g>
        <g transform="translate(-158,-358) scale(1,1)">
            <path fill="none" stroke="#000000" d="M 511.3340434751804 548.6288494968912 L 515 559 L 519.7412881312194 549.0742664323105" stroke-miterlimit="10" />
        </g>
        <g transform="translate(-158,-358) scale(1,1)">
            <path fill="none" stroke="#000000" d="M 288 496 L 479 566" stroke-miterlimit="10" stroke-dasharray="3" />
        </g>
        <g transform="translate(-158,-358) scale(1,1)">
            <path fill="none" stroke="#000000" d="M 468.00942913710975 566.4553593172297 L 479 566 L 470.9065051526494 558.5504804748286" stroke-miterlimit="10" />
        </g>
        <g transform="translate(-158,-358) scale(1,1)">
            <rect fill="#C0C0C0" stroke="none" x="599" y="799" width="30.481054687499977" height="15" opacity="0.2" />
        </g>
        <g transform="translate(-158,-358) scale(1,1)">
            <rect fill="#C0C0C0" stroke="none" x="599" y="813" width="76.20263671875" height="25" opacity="0.2" />
        </g>
        <g transform="translate(-158,-358) scale(1,1)">
            <rect fill="#91ffec" stroke="none" x="592" y="807" width="76.20263671875" height="24" />
        </g>
        <g transform="translate(-158,-358) scale(1,1)">
            <path fill="none" stroke="#000000" d="M 592 807 L 668.20263671875 807 L 668.20263671875 831 L 592 831 L 592 807 Z Z" stroke-miterlimit="10" />
        </g>
        <g transform="translate(-158,-358) scale(1,1)">
            <rect fill="#91ffec" stroke="none" x="592" y="792" width="30.481054687499977" height="15" />
        </g>
        <g transform="translate(-158,-358) scale(1,1)">
            <path fill="none" stroke="#000000" d="M 592 792 L 622.4810546875 792 L 622.4810546875 807 L 592 807 L 592 792 Z Z" stroke-miterlimit="10" />
        </g>
        <g transform="translate(-158,-358) scale(1,1)">
            <rect fill="#91ffec" stroke="none" x="592" y="806" width="76.20263671875" height="25" />
        </g>
        <g transform="translate(-158,-358) scale(1,1)">
            <path fill="none" stroke="#000000" d="M 592 806 L 668.20263671875 806 L 668.20263671875 831 L 592 831 L 592 806 Z Z" stroke-miterlimit="10" />
        </g>
        <g transform="translate(-158,-358) scale(1,1)">
            <g>
                <path fill="none" stroke="none" />
                <text fill="#000000" stroke="none" font-family="Arial" font-size="13px" font-style="normal" font-weight="bold" text-decoration="none" x="597.594970703125" y="826.5">Pers JSON</text>
            </g>
        </g>
        <g transform="translate(-158,-358) scale(1,1)">
            <rect fill="#C0C0C0" stroke="none" x="351" y="783" width="44.74042968750001" height="15" opacity="0.2" />
        </g>
        <g transform="translate(-158,-358) scale(1,1)">
            <rect fill="#C0C0C0" stroke="none" x="351" y="797" width="111.85107421875" height="25" opacity="0.2" />
        </g>
        <g transform="translate(-158,-358) scale(1,1)">
            <rect fill="#ffff91" stroke="none" x="344" y="791" width="111.85107421875" height="24" />
        </g>
        <g transform="translate(-158,-358) scale(1,1)">
            <path fill="none" stroke="#000000" d="M 344 791 L 455.85107421875 791 L 455.85107421875 815 L 344 815 L 344 791 Z Z" stroke-miterlimit="10" />
        </g>
        <g transform="translate(-158,-358) scale(1,1)">
            <rect fill="#ffff91" stroke="none" x="344" y="776" width="44.74042968750001" height="15" />
        </g>
        <g transform="translate(-158,-358) scale(1,1)">
            <path fill="none" stroke="#000000" d="M 344 776 L 388.7404296875 776 L 388.7404296875 791 L 344 791 L 344 776 Z Z" stroke-miterlimit="10" />
        </g>
        <g transform="translate(-158,-358) scale(1,1)">
            <rect fill="#ffff91" stroke="none" x="344" y="790" width="111.85107421875" height="25" />
        </g>
        <g transform="translate(-158,-358) scale(1,1)">
            <path fill="none" stroke="#000000" d="M 344 790 L 455.85107421875 790 L 455.85107421875 815 L 344 815 L 344 790 Z Z" stroke-miterlimit="10" />
        </g>
        <g transform="translate(-158,-358) scale(1,1)">
            <g>
                <path fill="none" stroke="none" />
                <text fill="#000000" stroke="none" font-family="Arial" font-size="13px" font-style="normal" font-weight="bold" text-decoration="none" x="351.746826171875" y="810.5">desaccordeVues</text>
            </g>
        </g>
        <g transform="translate(-158,-358) scale(1,1)">
            <path fill="none" stroke="#000000" d="M 410 775 L 503 600" stroke-miterlimit="10" stroke-dasharray="3" />
        </g>
        <g transform="translate(-158,-358) scale(1,1)">
            <path fill="none" stroke="#000000" d="M 501.9480944722845 610.9495887941403 L 503 600 L 494.513661980644 606.9987189557255" stroke-miterlimit="10" />
        </g>
        <g transform="translate(-158,-358) scale(1,1)">
            <rect fill="#C0C0C0" stroke="none" x="831" y="575" width="27.5966796875" height="15" opacity="0.2" />
        </g>
        <g transform="translate(-158,-358) scale(1,1)">
            <rect fill="#C0C0C0" stroke="none" x="831" y="589" width="68.99169921875" height="25" opacity="0.2" />
        </g>
        <g transform="translate(-158,-358) scale(1,1)">
            <rect fill="#91ffec" stroke="none" x="824" y="583" width="68.99169921875" height="24" />
        </g>
        <g transform="translate(-158,-358) scale(1,1)">
            <path fill="none" stroke="#000000" d="M 824 583 L 892.99169921875 583 L 892.99169921875 607 L 824 607 L 824 583 Z Z" stroke-miterlimit="10" />
        </g>
        <g transform="translate(-158,-358) scale(1,1)">
            <rect fill="#91ffec" stroke="none" x="824" y="568" width="27.5966796875" height="15" />
        </g>
        <g transform="translate(-158,-358) scale(1,1)">
            <path fill="none" stroke="#000000" d="M 824 568 L 851.5966796875 568 L 851.5966796875 583 L 824 583 L 824 568 Z Z" stroke-miterlimit="10" />
        </g>
        <g transform="translate(-158,-358) scale(1,1)">
            <rect fill="#91ffec" stroke="none" x="824" y="582" width="68.99169921875" height="25" />
        </g>
        <g transform="translate(-158,-358) scale(1,1)">
            <path fill="none" stroke="#000000" d="M 824 582 L 892.99169921875 582 L 892.99169921875 607 L 824 607 L 824 582 Z Z" stroke-miterlimit="10" />
        </g>
        <g transform="translate(-158,-358) scale(1,1)">
            <g>
                <path fill="none" stroke="none" />
                <text fill="#000000" stroke="none" font-family="Arial" font-size="13px" font-style="normal" font-weight="bold" text-decoration="none" x="845.12451171875" y="602.5">Stub</text>
            </g>
        </g>
        <g transform="translate(-158,-358) scale(1,1)">
            <rect fill="#C0C0C0" stroke="none" x="751" y="431" width="27.7744140625" height="15" opacity="0.2" />
        </g>
        <g transform="translate(-158,-358) scale(1,1)">
            <rect fill="#C0C0C0" stroke="none" x="751" y="445" width="69.43603515625" height="25" opacity="0.2" />
        </g>
        <g transform="translate(-158,-358) scale(1,1)">
            <rect fill="#e2e2e2" stroke="none" x="744" y="439" width="69.43603515625" height="24" />
        </g>
        <g transform="translate(-158,-358) scale(1,1)">
            <path fill="none" stroke="#000000" d="M 744 439 L 813.43603515625 439 L 813.43603515625 463 L 744 463 L 744 439 Z Z" stroke-miterlimit="10" />
        </g>
        <g transform="translate(-158,-358) scale(1,1)">
            <rect fill="#e2e2e2" stroke="none" x="744" y="424" width="27.7744140625" height="15" />
        </g>
        <g transform="translate(-158,-358) scale(1,1)">
            <path fill="none" stroke="#000000" d="M 744 424 L 771.7744140625 424 L 771.7744140625 439 L 744 439 L 744 424 Z Z" stroke-miterlimit="10" />
        </g>
        <g transform="translate(-158,-358) scale(1,1)">
            <rect fill="#e2e2e2" stroke="none" x="744" y="438" width="69.43603515625" height="25" />
        </g>
        <g transform="translate(-158,-358) scale(1,1)">
            <path fill="none" stroke="#000000" d="M 744 438 L 813.43603515625 438 L 813.43603515625 463 L 744 463 L 744 438 Z Z" stroke-miterlimit="10" />
        </g>
        <g transform="translate(-158,-358) scale(1,1)">
            <g>
                <path fill="none" stroke="none" />
                <text fill="#000000" stroke="none" font-family="Arial" font-size="13px" font-style="normal" font-weight="bold" text-decoration="none" x="750.896240234375" y="458.5">Test_stub</text>
            </g>
        </g>
        <g transform="translate(-158,-358) scale(1,1)">
            <path fill="none" stroke="#000000" d="M 790 464 L 847 567" stroke-miterlimit="10" stroke-dasharray="3" />
        </g>
        <g transform="translate(-158,-358) scale(1,1)">
            <path fill="none" stroke="#000000" d="M 838.3960861596681 560.146339180544 L 847 567 L 845.7623842201465 556.0698441373667" stroke-miterlimit="10" />
        </g>
        <g transform="translate(-158,-358) scale(1,1)">
            <path fill="none" stroke="#000000" d="M 743 461 L 550 560" stroke-miterlimit="10" stroke-dasharray="3" />
        </g>
        <g transform="translate(-158,-358) scale(1,1)">
            <path fill="none" stroke="#000000" d="M 557.1211707055265 551.6161507776708 L 550 560 L 560.9637047334194 559.1071514583103" stroke-miterlimit="10" />
        </g>
        <g transform="translate(-158,-358) scale(1,1)">
            <path fill="none" stroke="#000000" d="M 823 586 L 550 580" stroke-miterlimit="10" stroke-dasharray="3" />
        </g>
        <g transform="translate(-158,-358) scale(1,1)">
            <path fill="none" stroke="#000000" d="M 560.2527158279833 576.014800111585 L 550 580 L 560.0677267530276 584.4318030220635" stroke-miterlimit="10" />
        </g>
        <g transform="translate(-158,-358) scale(1,1)">
            <rect fill="#C0C0C0" stroke="none" x="719" y="759" width="29.511132812500023" height="15" opacity="0.2" />
        </g>
        <g transform="translate(-158,-358) scale(1,1)">
            <rect fill="#C0C0C0" stroke="none" x="719" y="773" width="73.77783203125" height="25" opacity="0.2" />
        </g>
        <g transform="translate(-158,-358) scale(1,1)">
            <rect fill="#e2e2e2" stroke="none" x="712" y="767" width="73.77783203125" height="24" />
        </g>
        <g transform="translate(-158,-358) scale(1,1)">
            <path fill="none" stroke="#000000" d="M 712 767 L 785.77783203125 767 L 785.77783203125 791 L 712 791 L 712 767 Z Z" stroke-miterlimit="10" />
        </g>
        <g transform="translate(-158,-358) scale(1,1)">
            <rect fill="#e2e2e2" stroke="none" x="712" y="752" width="29.511132812500023" height="15" />
        </g>
        <g transform="translate(-158,-358) scale(1,1)">
            <path fill="none" stroke="#000000" d="M 712 752 L 741.5111328125 752 L 741.5111328125 767 L 712 767 L 712 752 Z Z" stroke-miterlimit="10" />
        </g>
        <g transform="translate(-158,-358) scale(1,1)">
            <rect fill="#e2e2e2" stroke="none" x="712" y="766" width="73.77783203125" height="25" />
        </g>
        <g transform="translate(-158,-358) scale(1,1)">
            <path fill="none" stroke="#000000" d="M 712 766 L 785.77783203125 766 L 785.77783203125 791 L 712 791 L 712 766 Z Z" stroke-miterlimit="10" />
        </g>
        <g transform="translate(-158,-358) scale(1,1)">
            <g>
                <path fill="none" stroke="none" />
                <text fill="#000000" stroke="none" font-family="Arial" font-size="13px" font-style="normal" font-weight="bold" text-decoration="none" x="717.82666015625" y="786.5">Test JSON</text>
            </g>
        </g>
        <g transform="translate(-158,-358) scale(1,1)">
            <path fill="none" stroke="#000000" d="M 711 784 L 669 798" stroke-miterlimit="10" stroke-dasharray="3" />
        </g>
        <g transform="translate(-158,-358) scale(1,1)">
            <path fill="none" stroke="#000000" d="M 677.3099935049528 790.7927808450386 L 669 798 L 679.9723262969391 798.7797792209975" stroke-miterlimit="10" />
        </g>
        <g transform="translate(-158,-358) scale(1,1)">
            <path fill="none" stroke="#000000" d="M 724 751 L 540 600" stroke-miterlimit="10" stroke-dasharray="3" />
        </g>
        <g transform="translate(-158,-358) scale(1,1)">
            <path fill="none" stroke="#000000" d="M 550.526394478532 603.1929640277226 L 540 600 L 545.1855184011272 609.701051433302" stroke-miterlimit="10" />
        </g>
        <g transform="translate(-158,-358) scale(1,1)">
            <path fill="none" stroke="#000000" d="M 620 791 L 525 600" stroke-miterlimit="10" stroke-dasharray="3" />
        </g>
        <g transform="translate(-158,-358) scale(1,1)">
            <path fill="none" stroke="#000000" d="M 533.2948658027027 607.2246246487381 L 525 600 L 525.7567747774733 610.9739369387736" stroke-miterlimit="10" />
        </g>
        <g transform="translate(-158,-358) scale(1,1)">
            <path fill="none" stroke="#000000" d="M 457 799 L 591 808" stroke-miterlimit="10" stroke-dasharray="3" />
        </g>
        <g transform="translate(-158,-358) scale(1,1)">
            <path fill="none" stroke="#000000" d="M 580.5780766760711 811.5190217717636 L 591 808 L 581.1422631866865 803.1189115026008" stroke-miterlimit="10" />
        </g>
        <g transform="translate(-158,-358) scale(1,1)">
            <path fill="none" stroke="#000000" d="M 450 816 L 624 888 L 864 888 L 858 608" stroke-miterlimit="10" stroke-dasharray="3" />
        </g>
        <g transform="translate(-158,-358) scale(1,1)">
            <path fill="none" stroke="#000000" d="M 862.4262732405377 618.0701591447255 L 858 608 L 854.0091700049056 618.2505256426319" stroke-miterlimit="10" />
        </g>
    </g>
</svg>