<svg version="1.1" xmlns="http://www.w3.org/2000/svg" xmlns:xlink="http://www.w3.org/1999/xlink" width="1181" height="624">
    <defs />
    <g>
        <g transform="translate(-966,-270) scale(1,1)">
            <rect fill="#C0C0C0" stroke="none" x="1887" y="551" width="121.943359375" height="44" opacity="0.2" />
        </g>
        <g transform="translate(-966,-270) scale(1,1)">
            <rect fill="#91ffec" stroke="none" x="1880" y="544" width="121.943359375" height="44" />
        </g>
        <g transform="translate(-966,-270) scale(1,1)">
            <path fill="none" stroke="#000000" d="M 1880 544 L 2001.943359375 544 L 2001.943359375 588 L 1880 588 L 1880 544 Z Z" stroke-miterlimit="10" />
        </g>
        <g transform="translate(-966,-270) scale(1,1)">
            <path fill="none" stroke="#000000" d="M 1880 569 L 2001.943359375 569" stroke-miterlimit="10" />
        </g>
        <g transform="translate(-966,-270) scale(1,1)">
            <path fill="none" stroke="#000000" d="M 1880 579 L 2001.943359375 579" stroke-miterlimit="10" />
        </g>
        <g transform="translate(-966,-270) scale(1,1)">
            <g>
                <path fill="none" stroke="none" />
                <text fill="#000000" stroke="none" font-family="Arial" font-size="13px" font-style="normal" font-weight="bold" text-decoration="none" x="1915.6826171875" y="563.5">Morceau</text>
            </g>
        </g>
        <g transform="translate(-966,-270) scale(1,1)">
            <rect fill="#C0C0C0" stroke="none" x="1967" y="615" width="125.34619140625" height="47" opacity="0.2" />
        </g>
        <g transform="translate(-966,-270) scale(1,1)">
            <rect fill="#91ffec" stroke="none" x="1960" y="608" width="125.34619140625" height="47" />
        </g>
        <g transform="translate(-966,-270) scale(1,1)">
            <path fill="none" stroke="#000000" d="M 1960 608 L 2085.34619140625 608 L 2085.34619140625 655 L 1960 655 L 1960 608 Z Z" stroke-miterlimit="10" />
        </g>
        <g transform="translate(-966,-270) scale(1,1)">
            <path fill="none" stroke="#000000" d="M 1960 646 L 2085.34619140625 646" stroke-miterlimit="10" />
        </g>
        <g transform="translate(-966,-270) scale(1,1)">
            <g>
                <path fill="none" stroke="none" />
                <text fill="#000000" stroke="none" font-family="Arial" font-size="13px" font-style="normal" font-weight="normal" text-decoration="none" x="1979.30908203125" y="625.5">«enumeration»</text>
            </g>
        </g>
        <g transform="translate(-966,-270) scale(1,1)">
            <g>
                <path fill="none" stroke="none" />
                <text fill="#000000" stroke="none" font-family="Arial" font-size="13px" font-style="normal" font-weight="bold" text-decoration="none" x="2004.607666015625" y="640.5">Genre</text>
            </g>
        </g>
        <g transform="translate(-966,-270) scale(1,1)">
            <rect fill="#C0C0C0" stroke="none" x="1695" y="551" width="110.94873046875" height="44" opacity="0.2" />
        </g>
        <g transform="translate(-966,-270) scale(1,1)">
            <rect fill="#91ffec" stroke="none" x="1688" y="544" width="110.94873046875" height="44" />
        </g>
        <g transform="translate(-966,-270) scale(1,1)">
            <path fill="none" stroke="#000000" d="M 1688 544 L 1798.94873046875 544 L 1798.94873046875 588 L 1688 588 L 1688 544 Z Z" stroke-miterlimit="10" />
        </g>
        <g transform="translate(-966,-270) scale(1,1)">
            <path fill="none" stroke="#000000" d="M 1688 569 L 1798.94873046875 569" stroke-miterlimit="10" />
        </g>
        <g transform="translate(-966,-270) scale(1,1)">
            <path fill="none" stroke="#000000" d="M 1688 579 L 1798.94873046875 579" stroke-miterlimit="10" />
        </g>
        <g transform="translate(-966,-270) scale(1,1)">
            <g>
                <path fill="none" stroke="none" />
                <text fill="#000000" stroke="none" font-family="Arial" font-size="13px" font-style="normal" font-weight="bold" text-decoration="none" x="1725.053466796875" y="563.5">Artiste</text>
            </g>
        </g>
        <g transform="translate(-966,-270) scale(1,1)">
            <rect fill="#C0C0C0" stroke="none" x="1919" y="695" width="121.64892578125" height="44" opacity="0.2" />
        </g>
        <g transform="translate(-966,-270) scale(1,1)">
            <rect fill="#91ffec" stroke="none" x="1912" y="688" width="121.64892578125" height="44" />
        </g>
        <g transform="translate(-966,-270) scale(1,1)">
            <path fill="none" stroke="#000000" d="M 1912 688 L 2033.64892578125 688 L 2033.64892578125 732 L 1912 732 L 1912 688 Z Z" stroke-miterlimit="10" />
        </g>
        <g transform="translate(-966,-270) scale(1,1)">
            <path fill="none" stroke="#000000" d="M 1912 713 L 2033.64892578125 713" stroke-miterlimit="10" />
        </g>
        <g transform="translate(-966,-270) scale(1,1)">
            <path fill="none" stroke="#000000" d="M 1912 723 L 2033.64892578125 723" stroke-miterlimit="10" />
        </g>
        <g transform="translate(-966,-270) scale(1,1)">
            <g>
                <path fill="none" stroke="none" />
                <text fill="#000000" stroke="none" font-family="Arial" font-size="13px" font-style="normal" font-weight="bold" text-decoration="none" x="1954.400390625" y="707.5">Album</text>
            </g>
        </g>
        <g transform="translate(-966,-270) scale(1,1)">
            <rect fill="#C0C0C0" stroke="none" x="1839" y="439" width="79.89013671875" height="44" opacity="0.2" />
        </g>
        <g transform="translate(-966,-270) scale(1,1)">
            <rect fill="#91ffec" stroke="none" x="1832" y="432" width="79.89013671875" height="44" />
        </g>
        <g transform="translate(-966,-270) scale(1,1)">
            <path fill="none" stroke="#000000" d="M 1832 432 L 1911.89013671875 432 L 1911.89013671875 476 L 1832 476 L 1832 432 Z Z" stroke-miterlimit="10" />
        </g>
        <g transform="translate(-966,-270) scale(1,1)">
            <path fill="none" stroke="#000000" d="M 1832 457 L 1911.89013671875 457" stroke-miterlimit="10" />
        </g>
        <g transform="translate(-966,-270) scale(1,1)">
            <path fill="none" stroke="#000000" d="M 1832 467 L 1911.89013671875 467" stroke-miterlimit="10" />
        </g>
        <g transform="translate(-966,-270) scale(1,1)">
            <g>
                <path fill="none" stroke="none" />
                <text fill="#000000" stroke="none" font-family="Arial" font-size="13px" font-style="normal" font-weight="bold" text-decoration="none" x="1851.3564453125" y="451.5">Playlist</text>
            </g>
        </g>
        <g transform="translate(-966,-270) scale(1,1)">
            <rect fill="#C0C0C0" stroke="none" x="1359" y="719" width="73.32080078125" height="47" opacity="0.2" />
        </g>
        <g transform="translate(-966,-270) scale(1,1)">
            <rect fill="#d6adff" stroke="none" x="1352" y="712" width="73.32080078125" height="47" />
        </g>
        <g transform="translate(-966,-270) scale(1,1)">
            <path fill="none" stroke="#000000" d="M 1352 712 L 1425.32080078125 712 L 1425.32080078125 759 L 1352 759 L 1352 712 Z Z" stroke-miterlimit="10" />
        </g>
        <g transform="translate(-966,-270) scale(1,1)">
            <path fill="none" stroke="#000000" d="M 1352 750 L 1425.32080078125 750" stroke-miterlimit="10" />
        </g>
        <g transform="translate(-966,-270) scale(1,1)">
            <g>
                <path fill="none" stroke="none" />
                <text fill="#000000" stroke="none" font-family="Arial" font-size="13px" font-style="normal" font-weight="normal" text-decoration="none" x="1356.5" y="729.5">«interface»</text>
            </g>
        </g>
        <g transform="translate(-966,-270) scale(1,1)">
            <g>
                <path fill="none" stroke="none" />
                <text fill="#000000" stroke="none" font-family="Arial" font-size="13px" font-style="normal" font-weight="bold" text-decoration="none" x="1379.5166015625" y="744.5">ITri</text>
            </g>
        </g>
        <g transform="translate(-966,-270) scale(1,1)">
            <rect fill="#C0C0C0" stroke="none" x="1199" y="831" width="53.07177734375" height="44" opacity="0.2" />
        </g>
        <g transform="translate(-966,-270) scale(1,1)">
            <rect fill="#d6adff" stroke="none" x="1192" y="824" width="53.07177734375" height="44" />
        </g>
        <g transform="translate(-966,-270) scale(1,1)">
            <path fill="none" stroke="#000000" d="M 1192 824 L 1245.07177734375 824 L 1245.07177734375 868 L 1192 868 L 1192 824 Z Z" stroke-miterlimit="10" />
        </g>
        <g transform="translate(-966,-270) scale(1,1)">
            <path fill="none" stroke="#000000" d="M 1192 849 L 1245.07177734375 849" stroke-miterlimit="10" />
        </g>
        <g transform="translate(-966,-270) scale(1,1)">
            <path fill="none" stroke="#000000" d="M 1192 859 L 1245.07177734375 859" stroke-miterlimit="10" />
        </g>
        <g transform="translate(-966,-270) scale(1,1)">
            <g>
                <path fill="none" stroke="none" />
                <text fill="#000000" stroke="none" font-family="Arial" font-size="13px" font-style="normal" font-weight="bold" text-decoration="none" x="1197.468017578125" y="843.5">TriDate</text>
            </g>
        </g>
        <g transform="translate(-966,-270) scale(1,1)">
            <rect fill="#C0C0C0" stroke="none" x="1343" y="847" width="73.3017578125" height="44" opacity="0.2" />
        </g>
        <g transform="translate(-966,-270) scale(1,1)">
            <rect fill="#d6adff" stroke="none" x="1336" y="840" width="73.3017578125" height="44" />
        </g>
        <g transform="translate(-966,-270) scale(1,1)">
            <path fill="none" stroke="#000000" d="M 1336 840 L 1409.3017578125 840 L 1409.3017578125 884 L 1336 884 L 1336 840 Z Z" stroke-miterlimit="10" />
        </g>
        <g transform="translate(-966,-270) scale(1,1)">
            <path fill="none" stroke="#000000" d="M 1336 865 L 1409.3017578125 865" stroke-miterlimit="10" />
        </g>
        <g transform="translate(-966,-270) scale(1,1)">
            <path fill="none" stroke="#000000" d="M 1336 875 L 1409.3017578125 875" stroke-miterlimit="10" />
        </g>
        <g transform="translate(-966,-270) scale(1,1)">
            <g>
                <path fill="none" stroke="none" />
                <text fill="#000000" stroke="none" font-family="Arial" font-size="13px" font-style="normal" font-weight="bold" text-decoration="none" x="1343.64208984375" y="859.5">TriArtistes</text>
            </g>
        </g>
        <g transform="translate(-966,-270) scale(1,1)">
            <path fill="none" stroke="#000000" d="M 1246 828 L 1351 759" stroke-miterlimit="10" stroke-dasharray="3" />
        </g>
        <g transform="translate(-966,-270) scale(1,1)">
            <path fill="#FFFFFF" stroke="none" d="M 1338.6375419963424 777.1980667134673 L 1351 759 L 1329.390445735902 763.1263984910578" />
        </g>
        <g transform="translate(-966,-270) scale(1,1)">
            <path fill="none" stroke="#000000" d="M 1338.6375419963424 777.1980667134673 L 1351 759 L 1329.390445735902 763.1263984910578 L 1338.6375419963424 777.1980667134673" stroke-miterlimit="10" />
        </g>
        <g transform="translate(-966,-270) scale(1,1)">
            <path fill="none" stroke="#000000" d="M 1375 839 L 1385 760" stroke-miterlimit="10" stroke-dasharray="3" />
        </g>
        <g transform="translate(-966,-270) scale(1,1)">
            <path fill="#FFFFFF" stroke="none" d="M 1390.799924781242 781.2217075781365 L 1385 760 L 1374.09515280633 779.1071794800464" />
        </g>
        <g transform="translate(-966,-270) scale(1,1)">
            <path fill="none" stroke="#000000" d="M 1390.799924781242 781.2217075781365 L 1385 760 L 1374.09515280633 779.1071794800464 L 1390.799924781242 781.2217075781365" stroke-miterlimit="10" />
        </g>
        <g transform="translate(-966,-270) scale(1,1)">
            <rect fill="#C0C0C0" stroke="none" x="1407" y="567" width="143.0244140625" height="44" opacity="0.2" />
        </g>
        <g transform="translate(-966,-270) scale(1,1)">
            <rect fill="#ffffff" stroke="none" x="1400" y="560" width="143.0244140625" height="44" />
        </g>
        <g transform="translate(-966,-270) scale(1,1)">
            <path fill="none" stroke="#000000" d="M 1400 560 L 1543.0244140625 560 L 1543.0244140625 604 L 1400 604 L 1400 560 Z Z" stroke-miterlimit="10" />
        </g>
        <g transform="translate(-966,-270) scale(1,1)">
            <path fill="none" stroke="#000000" d="M 1400 585 L 1543.0244140625 585" stroke-miterlimit="10" />
        </g>
        <g transform="translate(-966,-270) scale(1,1)">
            <path fill="none" stroke="#000000" d="M 1400 595 L 1543.0244140625 595" stroke-miterlimit="10" />
        </g>
        <g transform="translate(-966,-270) scale(1,1)">
            <g>
                <path fill="none" stroke="none" />
                <text fill="#000000" stroke="none" font-family="Arial" font-size="13px" font-style="normal" font-weight="bold" text-decoration="none" x="1445.858154296875" y="579.5">Manager</text>
            </g>
        </g>
        <g transform="translate(-966,-270) scale(1,1)">
            <path fill="none" stroke="#000000" d="M 1459 605 L 1401 711" stroke-miterlimit="10" />
        </g>
        <g transform="translate(-966,-270) scale(1,1)">
            <path fill="none" stroke="#000000" d="M 1402.185348958512 700.0640524943399 L 1401 711 L 1409.5710509265884 704.1052856466837" stroke-miterlimit="10" />
        </g>
        <g transform="translate(-966,-270) scale(1,1)">
            <g>
                <path fill="none" stroke="none" />
                <text fill="#000000" stroke="none" font-family="Arial" font-size="13px" font-style="normal" font-weight="normal" text-decoration="none" x="1397.58544921875" y="692.5">*</text>
            </g>
        </g>
        <g transform="translate(-966,-270) scale(1,1)">
            <rect fill="#C0C0C0" stroke="none" x="1599" y="439" width="83.37255859375" height="44" opacity="0.2" />
        </g>
        <g transform="translate(-966,-270) scale(1,1)">
            <rect fill="#91ffec" stroke="none" x="1592" y="432" width="83.37255859375" height="44" />
        </g>
        <g transform="translate(-966,-270) scale(1,1)">
            <path fill="none" stroke="#000000" d="M 1592 432 L 1675.37255859375 432 L 1675.37255859375 476 L 1592 476 L 1592 432 Z Z" stroke-miterlimit="10" />
        </g>
        <g transform="translate(-966,-270) scale(1,1)">
            <path fill="none" stroke="#000000" d="M 1592 457 L 1675.37255859375 457" stroke-miterlimit="10" />
        </g>
        <g transform="translate(-966,-270) scale(1,1)">
            <path fill="none" stroke="#000000" d="M 1592 467 L 1675.37255859375 467" stroke-miterlimit="10" />
        </g>
        <g transform="translate(-966,-270) scale(1,1)">
            <g>
                <path fill="none" stroke="none" />
                <text fill="#000000" stroke="none" font-family="Arial" font-size="13px" font-style="normal" font-weight="bold" text-decoration="none" x="1604.78857421875" y="451.5">Utilisateur</text>
            </g>
        </g>
        <g transform="translate(-966,-270) scale(1,1)">
            <rect fill="#C0C0C0" stroke="none" x="1343" y="423" width="97.86083984375" height="44" opacity="0.2" />
        </g>
        <g transform="translate(-966,-270) scale(1,1)">
            <rect fill="#6dceff" stroke="none" x="1336" y="416" width="97.86083984375" height="44" />
        </g>
        <g transform="translate(-966,-270) scale(1,1)">
            <path fill="none" stroke="#000000" d="M 1336 416 L 1433.86083984375 416 L 1433.86083984375 460 L 1336 460 L 1336 416 Z Z" stroke-miterlimit="10" />
        </g>
        <g transform="translate(-966,-270) scale(1,1)">
            <path fill="none" stroke="#000000" d="M 1336 441 L 1433.86083984375 441" stroke-miterlimit="10" />
        </g>
        <g transform="translate(-966,-270) scale(1,1)">
            <path fill="none" stroke="#000000" d="M 1336 451 L 1433.86083984375 451" stroke-miterlimit="10" />
        </g>
        <g transform="translate(-966,-270) scale(1,1)">
            <g>
                <path fill="none" stroke="none" />
                <text fill="#000000" stroke="none" font-family="Arial" font-size="13px" font-style="normal" font-weight="bold" text-decoration="none" x="1343.3818359375" y="435.5">JouerMorceau</text>
            </g>
        </g>
        <g transform="translate(-966,-270) scale(1,1)">
            <path fill="none" stroke="#000000" d="M 1457 559 L 1398 461" stroke-miterlimit="10" />
        </g>
        <g transform="translate(-966,-270) scale(1,1)">
            <path fill="none" stroke="#000000" d="M 1406.8480928854713 467.53538463214477 L 1398 461 L 1399.6353316888333 471.87776127093707" stroke-miterlimit="10" />
        </g>
        <g transform="translate(-966,-270) scale(1,1)">
            <g>
                <path fill="none" stroke="none" />
                <text fill="#000000" stroke="none" font-family="Arial" font-size="13px" font-style="normal" font-weight="normal" text-decoration="none" x="1415.5" y="479.5">1</text>
            </g>
        </g>
        <g transform="translate(-966,-270) scale(1,1)">
            <rect fill="#C0C0C0" stroke="none" x="1191" y="558" width="99.0908203125" height="47" opacity="0.2" />
        </g>
        <g transform="translate(-966,-270) scale(1,1)">
            <rect fill="#C0C0C0" stroke="none" x="1282.14990234375" y="540" width="16.94091796875" height="22" opacity="0.2" />
        </g>
        <g transform="translate(-966,-270) scale(1,1)">
            <rect fill="#ffadad" stroke="none" x="1184" y="551" width="99.0908203125" height="47" />
        </g>
        <g transform="translate(-966,-270) scale(1,1)">
            <path fill="none" stroke="#000000" d="M 1184 551 L 1283.0908203125 551 L 1283.0908203125 598 L 1184 598 L 1184 551 Z Z" stroke-miterlimit="10" />
        </g>
        <g transform="translate(-966,-270) scale(1,1)">
            <path fill="none" stroke="#000000" d="M 1184 589 L 1283.0908203125 589" stroke-miterlimit="10" />
        </g>
        <g transform="translate(-966,-270) scale(1,1)">
            <g>
                <path fill="none" stroke="none" />
                <text fill="#000000" stroke="none" font-family="Arial" font-size="13px" font-style="normal" font-weight="normal" text-decoration="none" x="1201.385009765625" y="568.5">«interface»</text>
            </g>
        </g>
        <g transform="translate(-966,-270) scale(1,1)">
            <g>
                <path fill="none" stroke="none" />
                <text fill="#000000" stroke="none" font-family="Arial" font-size="13px" font-style="normal" font-weight="bold" text-decoration="none" x="1200.305908203125" y="583.5">IRecherche</text>
            </g>
        </g>
        <g transform="translate(-966,-270) scale(1,1)">
            <rect fill="#ffadad" stroke="none" x="1275.14990234375" y="533" width="16.94091796875" height="22" />
        </g>
        <g transform="translate(-966,-270) scale(1,1)">
            <path fill="none" stroke="#000000" d="M 1275.14990234375 533 L 1292.0908203125 533 L 1292.0908203125 555 L 1275.14990234375 555 L 1275.14990234375 533 Z Z" stroke-miterlimit="10" stroke-dasharray="3" />
        </g>
        <g transform="translate(-966,-270) scale(1,1)">
            <g>
                <path fill="none" stroke="none" />
                <text fill="#000000" stroke="none" font-family="Arial" font-size="13px" font-style="normal" font-weight="normal" text-decoration="none" x="1280.14990234375" y="550.5">T</text>
            </g>
        </g>
        <g transform="translate(-966,-270) scale(1,1)">
            <rect fill="#C0C0C0" stroke="none" x="1175" y="695" width="128.93896484375" height="44" opacity="0.2" />
        </g>
        <g transform="translate(-966,-270) scale(1,1)">
            <rect fill="#ffadad" stroke="none" x="1168" y="688" width="128.93896484375" height="44" />
        </g>
        <g transform="translate(-966,-270) scale(1,1)">
            <path fill="none" stroke="#000000" d="M 1168 688 L 1296.93896484375 688 L 1296.93896484375 732 L 1168 732 L 1168 688 Z Z" stroke-miterlimit="10" />
        </g>
        <g transform="translate(-966,-270) scale(1,1)">
            <path fill="none" stroke="#000000" d="M 1168 713 L 1296.93896484375 713" stroke-miterlimit="10" />
        </g>
        <g transform="translate(-966,-270) scale(1,1)">
            <path fill="none" stroke="#000000" d="M 1168 723 L 1296.93896484375 723" stroke-miterlimit="10" />
        </g>
        <g transform="translate(-966,-270) scale(1,1)">
            <g>
                <path fill="none" stroke="none" />
                <text fill="#000000" stroke="none" font-family="Arial" font-size="13px" font-style="normal" font-weight="bold" text-decoration="none" x="1175.746826171875" y="707.5">RechercheMorceau</text>
            </g>
        </g>
        <g transform="translate(-966,-270) scale(1,1)">
            <path fill="none" stroke="#000000" d="M 1399 577 L 1294 569" stroke-miterlimit="10" />
        </g>
        <g transform="translate(-966,-270) scale(1,1)">
            <path fill="none" stroke="#000000" d="M 1304.4531038489333 565.5747087826849 L 1294 569 L 1303.8135072633302 573.9694139687257" stroke-miterlimit="10" />
        </g>
        <g transform="translate(-966,-270) scale(1,1)">
            <g>
                <path fill="none" stroke="none" />
                <text fill="#000000" stroke="none" font-family="Arial" font-size="13px" font-style="normal" font-weight="normal" text-decoration="none" x="1313.58544921875" y="564.5">*</text>
            </g>
        </g>
        <g transform="translate(-966,-270) scale(1,1)">
            <rect fill="#C0C0C0" stroke="none" x="991" y="687" width="116.65625" height="44" opacity="0.2" />
        </g>
        <g transform="translate(-966,-270) scale(1,1)">
            <rect fill="#ffadad" stroke="none" x="984" y="680" width="116.65625" height="44" />
        </g>
        <g transform="translate(-966,-270) scale(1,1)">
            <path fill="none" stroke="#000000" d="M 984 680 L 1100.65625 680 L 1100.65625 724 L 984 724 L 984 680 Z Z" stroke-miterlimit="10" />
        </g>
        <g transform="translate(-966,-270) scale(1,1)">
            <path fill="none" stroke="#000000" d="M 984 705 L 1100.65625 705" stroke-miterlimit="10" />
        </g>
        <g transform="translate(-966,-270) scale(1,1)">
            <path fill="none" stroke="#000000" d="M 984 715 L 1100.65625 715" stroke-miterlimit="10" />
        </g>
        <g transform="translate(-966,-270) scale(1,1)">
            <g>
                <path fill="none" stroke="none" />
                <text fill="#000000" stroke="none" font-family="Arial" font-size="13px" font-style="normal" font-weight="bold" text-decoration="none" x="992.4736328125" y="699.5">RechercheArtiste</text>
            </g>
        </g>
        <g transform="translate(-966,-270) scale(1,1)">
            <rect fill="#C0C0C0" stroke="none" x="983" y="559" width="115.919921875" height="44" opacity="0.2" />
        </g>
        <g transform="translate(-966,-270) scale(1,1)">
            <rect fill="#ffadad" stroke="none" x="976" y="552" width="115.919921875" height="44" />
        </g>
        <g transform="translate(-966,-270) scale(1,1)">
            <path fill="none" stroke="#000000" d="M 976 552 L 1091.919921875 552 L 1091.919921875 596 L 976 596 L 976 552 Z Z" stroke-miterlimit="10" />
        </g>
        <g transform="translate(-966,-270) scale(1,1)">
            <path fill="none" stroke="#000000" d="M 976 577 L 1091.919921875 577" stroke-miterlimit="10" />
        </g>
        <g transform="translate(-966,-270) scale(1,1)">
            <path fill="none" stroke="#000000" d="M 976 587 L 1091.919921875 587" stroke-miterlimit="10" />
        </g>
        <g transform="translate(-966,-270) scale(1,1)">
            <g>
                <path fill="none" stroke="none" />
                <text fill="#000000" stroke="none" font-family="Arial" font-size="13px" font-style="normal" font-weight="bold" text-decoration="none" x="984.102294921875" y="571.5">RechercheAlbum</text>
            </g>
        </g>
        <g transform="translate(-966,-270) scale(1,1)">
            <rect fill="#C0C0C0" stroke="none" x="1119" y="399" width="118.10986328125" height="44" opacity="0.2" />
        </g>
        <g transform="translate(-966,-270) scale(1,1)">
            <rect fill="#ffadad" stroke="none" x="1112" y="392" width="118.10986328125" height="44" />
        </g>
        <g transform="translate(-966,-270) scale(1,1)">
            <path fill="none" stroke="#000000" d="M 1112 392 L 1230.10986328125 392 L 1230.10986328125 436 L 1112 436 L 1112 392 Z Z" stroke-miterlimit="10" />
        </g>
        <g transform="translate(-966,-270) scale(1,1)">
            <path fill="none" stroke="#000000" d="M 1112 417 L 1230.10986328125 417" stroke-miterlimit="10" />
        </g>
        <g transform="translate(-966,-270) scale(1,1)">
            <path fill="none" stroke="#000000" d="M 1112 427 L 1230.10986328125 427" stroke-miterlimit="10" />
        </g>
        <g transform="translate(-966,-270) scale(1,1)">
            <g>
                <path fill="none" stroke="none" />
                <text fill="#000000" stroke="none" font-family="Arial" font-size="13px" font-style="normal" font-weight="bold" text-decoration="none" x="1119.391357421875" y="411.5">RechercheGenrre</text>
            </g>
        </g>
        <g transform="translate(-966,-270) scale(1,1)">
            <path fill="none" stroke="#000000" d="M 1181 437 L 1223 532" stroke-miterlimit="10" stroke-dasharray="3" />
        </g>
        <g transform="translate(-966,-270) scale(1,1)">
            <path fill="#FFFFFF" stroke="none" d="M 1207.0813392550106 516.8146043816458 L 1223 532 L 1222.4815032565486 510.0061108230711" />
        </g>
        <g transform="translate(-966,-270) scale(1,1)">
            <path fill="none" stroke="#000000" d="M 1207.0813392550106 516.8146043816458 L 1223 532 L 1222.4815032565486 510.0061108230711 L 1207.0813392550106 516.8146043816458" stroke-miterlimit="10" />
        </g>
        <g transform="translate(-966,-270) scale(1,1)">
            <rect fill="#C0C0C0" stroke="none" x="1495" y="799" width="107.22998046875" height="44" opacity="0.2" />
        </g>
        <g transform="translate(-966,-270) scale(1,1)">
            <rect fill="#d6adff" stroke="none" x="1488" y="792" width="107.22998046875" height="44" />
        </g>
        <g transform="translate(-966,-270) scale(1,1)">
            <path fill="none" stroke="#000000" d="M 1488 792 L 1595.22998046875 792 L 1595.22998046875 836 L 1488 836 L 1488 792 Z Z" stroke-miterlimit="10" />
        </g>
        <g transform="translate(-966,-270) scale(1,1)">
            <path fill="none" stroke="#000000" d="M 1488 817 L 1595.22998046875 817" stroke-miterlimit="10" />
        </g>
        <g transform="translate(-966,-270) scale(1,1)">
            <path fill="none" stroke="#000000" d="M 1488 827 L 1595.22998046875 827" stroke-miterlimit="10" />
        </g>
        <g transform="translate(-966,-270) scale(1,1)">
            <g>
                <path fill="none" stroke="none" />
                <text fill="#000000" stroke="none" font-family="Arial" font-size="13px" font-style="normal" font-weight="bold" text-decoration="none" x="1496.32763671875" y="811.5">TriAlphabetique</text>
            </g>
        </g>
        <g transform="translate(-966,-270) scale(1,1)">
            <path fill="none" stroke="#000000" d="M 1496 791 L 1426 755" stroke-miterlimit="10" stroke-dasharray="3" />
        </g>
        <g transform="translate(-966,-270) scale(1,1)">
            <path fill="#FFFFFF" stroke="none" d="M 1447.9255147392323 756.8088127099575 L 1426 755 L 1440.2246564200095 771.7827038862241" />
        </g>
        <g transform="translate(-966,-270) scale(1,1)">
            <path fill="none" stroke="#000000" d="M 1447.9255147392323 756.8088127099575 L 1426 755 L 1440.2246564200095 771.7827038862241 L 1447.9255147392323 756.8088127099575" stroke-miterlimit="10" />
        </g>
        <g transform="translate(-966,-270) scale(1,1)">
            <path fill="none" stroke="#000000" d="M 1093 571 L 1183 567" stroke-miterlimit="10" stroke-dasharray="3" />
        </g>
        <g transform="translate(-966,-270) scale(1,1)">
            <path fill="#FFFFFF" stroke="none" d="M 1163.0685053560417 576.313190713062 L 1183 567 L 1162.320884670384 559.4917252857636" />
        </g>
        <g transform="translate(-966,-270) scale(1,1)">
            <path fill="none" stroke="#000000" d="M 1163.0685053560417 576.313190713062 L 1183 567 L 1162.320884670384 559.4917252857636 L 1163.0685053560417 576.313190713062" stroke-miterlimit="10" />
        </g>
        <g transform="translate(-966,-270) scale(1,1)">
            <path fill="none" stroke="#000000" d="M 1075 679 L 1189 599" stroke-miterlimit="10" stroke-dasharray="3" />
        </g>
        <g transform="translate(-966,-270) scale(1,1)">
            <path fill="#FFFFFF" stroke="none" d="M 1177.198659744613 617.5668620982809 L 1189 599 L 1167.526438183276 603.7839463733759" />
        </g>
        <g transform="translate(-966,-270) scale(1,1)">
            <path fill="none" stroke="#000000" d="M 1177.198659744613 617.5668620982809 L 1189 599 L 1167.526438183276 603.7839463733759 L 1177.198659744613 617.5668620982809" stroke-miterlimit="10" />
        </g>
        <g transform="translate(-966,-270) scale(1,1)">
            <path fill="none" stroke="#000000" d="M 1233 687 L 1237 599" stroke-miterlimit="10" stroke-dasharray="3" />
        </g>
        <g transform="translate(-966,-270) scale(1,1)">
            <path fill="#FFFFFF" stroke="none" d="M 1244.4874250275102 619.6866736440978 L 1237 599 L 1227.6667217966437 618.922096224513" />
        </g>
        <g transform="translate(-966,-270) scale(1,1)">
            <path fill="none" stroke="#000000" d="M 1244.4874250275102 619.6866736440978 L 1237 599 L 1227.6667217966437 618.922096224513 L 1244.4874250275102 619.6866736440978" stroke-miterlimit="10" />
        </g>
        <g transform="translate(-966,-270) scale(1,1)">
            <path fill="none" stroke="#000000" d="M 1969 589 L 1992 607" stroke-miterlimit="10" />
        </g>
        <g transform="translate(-966,-270) scale(1,1)">
            <path fill="none" stroke="#000000" d="M 1981.4024821553778 604.0516758093939 L 1992 607 L 1986.5912032966362 597.4216432400083" stroke-miterlimit="10" />
        </g>
        <g transform="translate(-966,-270) scale(1,1)">
            <g>
                <path fill="none" stroke="none" />
                <text fill="#000000" stroke="none" font-family="Arial" font-size="13px" font-style="normal" font-weight="normal" text-decoration="none" x="1990.5" y="604.5">1</text>
            </g>
        </g>
        <g transform="translate(-966,-270) scale(1,1)">
            <rect fill="#C0C0C0" stroke="none" x="1799" y="655" width="69.70263671875" height="57" opacity="0.2" />
        </g>
        <g transform="translate(-966,-270) scale(1,1)">
            <rect fill="#91ffec" stroke="none" x="1792" y="648" width="69.70263671875" height="57" />
        </g>
        <g transform="translate(-966,-270) scale(1,1)">
            <path fill="none" stroke="#000000" d="M 1792 648 L 1861.70263671875 648 L 1861.70263671875 705 L 1792 705 L 1792 648 Z Z" stroke-miterlimit="10" />
        </g>
        <g transform="translate(-966,-270) scale(1,1)">
            <path fill="none" stroke="#000000" d="M 1792 686 L 1861.70263671875 686" stroke-miterlimit="10" />
        </g>
        <g transform="translate(-966,-270) scale(1,1)">
            <path fill="none" stroke="#000000" d="M 1792 696 L 1861.70263671875 696" stroke-miterlimit="10" />
        </g>
        <g transform="translate(-966,-270) scale(1,1)">
            <g>
                <path fill="none" stroke="none" />
                <text fill="#000000" stroke="none" font-family="Arial" font-size="13px" font-style="normal" font-weight="normal" text-decoration="none" x="1796.5" y="665.5">«abstract»</text>
            </g>
        </g>
        <g transform="translate(-966,-270) scale(1,1)">
            <g>
                <path fill="none" stroke="none" />
                <text fill="#000000" stroke="none" font-family="Arial" font-size="13px" font-style="normal" font-weight="bold" text-decoration="none" x="1805.535888671875" y="680.5">Oeuvre</text>
            </g>
        </g>
        <g transform="translate(-966,-270) scale(1,1)">
            <path fill="none" stroke="#000000" d="M 1760 589 L 1804 647" stroke-miterlimit="10" />
        </g>
        <g transform="translate(-966,-270) scale(1,1)">
            <path fill="none" stroke="#000000" d="M 1794.5041306505236 641.4476612767525 L 1804 647 L 1801.2115027523766 636.3593100270707" stroke-miterlimit="10" />
        </g>
        <g transform="translate(-966,-270) scale(1,1)">
            <g>
                <path fill="none" stroke="none" />
                <text fill="#000000" stroke="none" font-family="Arial" font-size="13px" font-style="normal" font-weight="normal" text-decoration="none" x="1777.220458984375" y="643.5">*</text>
            </g>
        </g>
        <g transform="translate(-966,-270) scale(1,1)">
            <rect fill="#C0C0C0" stroke="none" x="1463" y="295" width="95.72802734375" height="47" opacity="0.2" />
        </g>
        <g transform="translate(-966,-270) scale(1,1)">
            <rect fill="#91ffec" stroke="none" x="1456" y="288" width="95.72802734375" height="47" />
        </g>
        <g transform="translate(-966,-270) scale(1,1)">
            <path fill="none" stroke="#000000" d="M 1456 288 L 1551.72802734375 288 L 1551.72802734375 335 L 1456 335 L 1456 288 Z Z" stroke-miterlimit="10" />
        </g>
        <g transform="translate(-966,-270) scale(1,1)">
            <path fill="none" stroke="#000000" d="M 1456 326 L 1551.72802734375 326" stroke-miterlimit="10" />
        </g>
        <g transform="translate(-966,-270) scale(1,1)">
            <g>
                <path fill="none" stroke="none" />
                <text fill="#000000" stroke="none" font-family="Arial" font-size="13px" font-style="normal" font-weight="normal" text-decoration="none" x="1460.5" y="305.5">«enumeration»</text>
            </g>
        </g>
        <g transform="translate(-966,-270) scale(1,1)">
            <g>
                <path fill="none" stroke="none" />
                <text fill="#000000" stroke="none" font-family="Arial" font-size="13px" font-style="normal" font-weight="bold" text-decoration="none" x="1489.772216796875" y="320.5">Type</text>
            </g>
        </g>
        <g transform="translate(-966,-270) scale(1,1)">
            <path fill="none" stroke="#000000" d="M 1911 696 L 1863 685" stroke-miterlimit="10" />
        </g>
        <g transform="translate(-966,-270) scale(1,1)">
            <path fill="#FFFFFF" stroke="none" d="M 1884.6923870455203 681.3338924910281 L 1863 685 L 1880.9311634601636 697.7465044998578" />
        </g>
        <g transform="translate(-966,-270) scale(1,1)">
            <path fill="none" stroke="#000000" d="M 1884.6923870455203 681.3338924910281 L 1863 685 L 1880.9311634601636 697.7465044998578 L 1884.6923870455203 681.3338924910281" stroke-miterlimit="10" />
        </g>
        <g transform="translate(-966,-270) scale(1,1)">
            <path fill="none" stroke="#000000" d="M 1916 589 L 1856 647" stroke-miterlimit="10" />
        </g>
        <g transform="translate(-966,-270) scale(1,1)">
            <path fill="#FFFFFF" stroke="none" d="M 1864.7622744693908 626.8202441510542 L 1856 647 L 1876.4651058994025 638.9266214924455" />
        </g>
        <g transform="translate(-966,-270) scale(1,1)">
            <path fill="none" stroke="#000000" d="M 1864.7622744693908 626.8202441510542 L 1856 647 L 1876.4651058994025 638.9266214924455 L 1864.7622744693908 626.8202441510542" stroke-miterlimit="10" />
        </g>
        <g transform="translate(-966,-270) scale(1,1)">
            <path fill="none" stroke="#000000" d="M 1544 578 L 1687 569" stroke-miterlimit="10" />
        </g>
        <g transform="translate(-966,-270) scale(1,1)">
            <path fill="none" stroke="#000000" d="M 1677.1218046217568 573.8395512260181 L 1687 569 L 1676.5929815723414 565.4371405519756" stroke-miterlimit="10" />
        </g>
        <g transform="translate(-966,-270) scale(1,1)">
            <g>
                <path fill="none" stroke="none" />
                <text fill="#000000" stroke="none" font-family="Arial" font-size="13px" font-style="normal" font-weight="normal" text-decoration="none" x="1663.220458984375" y="588.5">*</text>
            </g>
        </g>
        <g transform="translate(-966,-270) scale(1,1)">
            <path fill="none" stroke="#000000" d="M 1500 559 L 1604 477" stroke-miterlimit="10" />
        </g>
        <g transform="translate(-966,-270) scale(1,1)">
            <path fill="none" stroke="#000000" d="M 1598.6259068004385 486.5978707160718 L 1604 477 L 1593.4132227875755 479.98666172414784" stroke-miterlimit="10" />
        </g>
        <g transform="translate(-966,-270) scale(1,1)">
            <g>
                <path fill="none" stroke="none" />
                <text fill="#000000" stroke="none" font-family="Arial" font-size="13px" font-style="normal" font-weight="normal" text-decoration="none" x="1591.220458984375" y="506.5">*</text>
            </g>
        </g>
        <g transform="translate(-966,-270) scale(1,1)">
            <path fill="none" stroke="#000000" d="M 1544 601 L 1791 667" stroke-miterlimit="10" />
        </g>
        <g transform="translate(-966,-270) scale(1,1)">
            <path fill="none" stroke="#000000" d="M 1780.095104275841 668.443346543703 L 1791 667 L 1782.2684741566604 660.3096744139696" stroke-miterlimit="10" />
        </g>
        <g transform="translate(-966,-270) scale(1,1)">
            <g>
                <path fill="none" stroke="none" />
                <text fill="#000000" stroke="none" font-family="Arial" font-size="13px" font-style="normal" font-weight="normal" text-decoration="none" x="1763.220458984375" y="679.5">*</text>
            </g>
        </g>
        <g transform="translate(-966,-270) scale(1,1)">
            <rect fill="#C0C0C0" stroke="none" x="1479" y="431" width="50.919921875" height="44" opacity="0.2" />
        </g>
        <g transform="translate(-966,-270) scale(1,1)">
            <rect fill="#91ffec" stroke="none" x="1472" y="424" width="50.919921875" height="44" />
        </g>
        <g transform="translate(-966,-270) scale(1,1)">
            <path fill="none" stroke="#000000" d="M 1472 424 L 1522.919921875 424 L 1522.919921875 468 L 1472 468 L 1472 424 Z Z" stroke-miterlimit="10" />
        </g>
        <g transform="translate(-966,-270) scale(1,1)">
            <path fill="none" stroke="#000000" d="M 1472 449 L 1522.919921875 449" stroke-miterlimit="10" />
        </g>
        <g transform="translate(-966,-270) scale(1,1)">
            <path fill="none" stroke="#000000" d="M 1472 459 L 1522.919921875 459" stroke-miterlimit="10" />
        </g>
        <g transform="translate(-966,-270) scale(1,1)">
            <g>
                <path fill="none" stroke="none" />
                <text fill="#000000" stroke="none" font-family="Arial" font-size="13px" font-style="normal" font-weight="bold" text-decoration="none" x="1485.2978515625" y="443.5">Avis</text>
            </g>
        </g>
        <g transform="translate(-966,-270) scale(1,1)">
            <path fill="none" stroke="#000000" d="M 1498 423 L 1502 336" stroke-miterlimit="10" />
        </g>
        <g transform="translate(-966,-270) scale(1,1)">
            <path fill="none" stroke="#000000" d="M 1505.7383192335894 346.34528729943133 L 1502 336 L 1497.3281680775603 345.95861368306214" stroke-miterlimit="10" />
        </g>
        <g transform="translate(-966,-270) scale(1,1)">
            <g>
                <path fill="none" stroke="none" />
                <text fill="#000000" stroke="none" font-family="Arial" font-size="13px" font-style="normal" font-weight="normal" text-decoration="none" x="1509.5" y="364.5">1</text>
            </g>
        </g>
        <g transform="translate(-966,-270) scale(1,1)">
            <path fill="none" stroke="#000000" d="M 1524 448 L 1591 452" stroke-miterlimit="10" />
        </g>
        <g transform="translate(-966,-270) scale(1,1)">
            <path fill="none" stroke="#000000" d="M 1580.6045203097017 455.5963873551932 L 1591 452 L 1581.1062559306722 447.1923157039336" stroke-miterlimit="10" />
        </g>
        <g transform="translate(-966,-270) scale(1,1)">
            <g>
                <path fill="none" stroke="none" />
                <text fill="#000000" stroke="none" font-family="Arial" font-size="13px" font-style="normal" font-weight="normal" text-decoration="none" x="1568.5" y="443.5">1</text>
            </g>
        </g>
        <g transform="translate(-966,-270) scale(1,1)">
            <path fill="none" stroke="#000000" d="M 1475 559 L 1493 469" stroke-miterlimit="10" />
        </g>
        <g transform="translate(-966,-270) scale(1,1)">
            <path fill="none" stroke="#000000" d="M 1495.1347072497838 479.79087693182163 L 1493 469 L 1486.8791637187296 478.1397682256108" stroke-miterlimit="10" />
        </g>
        <g transform="translate(-966,-270) scale(1,1)">
            <g>
                <path fill="none" stroke="none" />
                <text fill="#000000" stroke="none" font-family="Arial" font-size="13px" font-style="normal" font-weight="normal" text-decoration="none" x="1498.220458984375" y="498.5">*</text>
            </g>
        </g>
        <g transform="translate(-966,-270) scale(1,1)">
            <path fill="none" stroke="#000000" d="M 1491 559 L 1544 498 L 1591 475" stroke-miterlimit="10" />
        </g>
        <g transform="translate(-966,-270) scale(1,1)">
            <path fill="none" stroke="#000000" d="M 1583.7220210877824 483.2480920795852 L 1591 475 L 1580.0214099165125 475.6859735991641" stroke-miterlimit="10" />
        </g>
        <g transform="translate(-966,-270) scale(1,1)">
            <g>
                <path fill="none" stroke="none" />
                <text fill="#000000" stroke="none" font-family="Arial" font-size="13px" font-style="normal" font-weight="normal" text-decoration="none" x="1567.5" y="475.5">1</text>
            </g>
        </g>
        <g transform="translate(-966,-270) scale(1,1)">
            <path fill="none" stroke="#000000" d="M 1656 477 L 1720 543" stroke-miterlimit="10" />
        </g>
        <g transform="translate(-966,-270) scale(1,1)">
            <path fill="none" stroke="#000000" d="M 1709.9032817612106 538.6346499789255 L 1720 543 L 1715.9473106677767 532.7737734634675" stroke-miterlimit="10" />
        </g>
        <g transform="translate(-966,-270) scale(1,1)">
            <g>
                <path fill="none" stroke="none" />
                <text fill="#000000" stroke="none" font-family="Arial" font-size="13px" font-style="normal" font-weight="normal" text-decoration="none" x="1692.220458984375" y="542.5">*</text>
            </g>
        </g>
        <g transform="translate(-966,-270) scale(1,1)">
            <path fill="none" stroke="#000000" d="M 1676 454 L 1816 456 L 1825 647" stroke-miterlimit="10" />
        </g>
        <g transform="translate(-966,-270) scale(1,1)">
            <path fill="none" stroke="#000000" d="M 1820.316808989143 637.0467230543992 L 1825 647 L 1828.7265135018931 636.6504542553691" stroke-miterlimit="10" />
        </g>
        <g transform="translate(-966,-270) scale(1,1)">
            <g>
                <path fill="none" stroke="none" />
                <text fill="#000000" stroke="none" font-family="Arial" font-size="13px" font-style="normal" font-weight="normal" text-decoration="none" x="1808.220458984375" y="631.5">*</text>
            </g>
        </g>
        <g transform="translate(-966,-270) scale(1,1)">
            <path fill="none" stroke="#000000" d="M 1676 453 L 1816 448 L 1831 450" stroke-miterlimit="10" />
        </g>
        <g transform="translate(-966,-270) scale(1,1)">
            <path fill="none" stroke="#000000" d="M 1820.3701276091329 452.8294545329229 L 1831 450 L 1821.4828186619814 444.48427163655896" stroke-miterlimit="10" />
        </g>
        <g transform="translate(-966,-270) scale(1,1)">
            <g>
                <path fill="none" stroke="none" />
                <text fill="#000000" stroke="none" font-family="Arial" font-size="13px" font-style="normal" font-weight="normal" text-decoration="none" x="1804.220458984375" y="443.5">*</text>
            </g>
        </g>
        <g transform="translate(-966,-270) scale(1,1)">
            <path fill="none" stroke="#000000" d="M 1866 477 L 1832 647" stroke-miterlimit="10" />
        </g>
        <g transform="translate(-966,-270) scale(1,1)">
            <path fill="none" stroke="#000000" d="M 1829.8652927502162 636.2091230681783 L 1832 647 L 1838.1208362812704 637.8602317743891" stroke-miterlimit="10" />
        </g>
        <g transform="translate(-966,-270) scale(1,1)">
            <g>
                <path fill="none" stroke="none" />
                <text fill="#000000" stroke="none" font-family="Arial" font-size="13px" font-style="normal" font-weight="normal" text-decoration="none" x="1838.220458984375" y="635.5">*</text>
            </g>
        </g>
        <g transform="translate(-966,-270) scale(1,1)">
            <path fill="none" stroke="#000000" d="M 1472 605 L 1480 744 L 2136 744 L 2136 456 L 1913 454" stroke-miterlimit="10" />
        </g>
        <g transform="translate(-966,-270) scale(1,1)">
            <path fill="none" stroke="#000000" d="M 1923.200018164207 449.8817929326167 L 1913 454 L 1923.1245141558138 458.3004898684597" stroke-miterlimit="10" />
        </g>
        <g transform="translate(-966,-270) scale(1,1)">
            <g>
                <path fill="none" stroke="none" />
                <text fill="#000000" stroke="none" font-family="Arial" font-size="13px" font-style="normal" font-weight="normal" text-decoration="none" x="1931.220458984375" y="447.5">*</text>
            </g>
        </g>
        <g transform="translate(-966,-270) scale(1,1)">
            <path fill="none" stroke="#000000" d="M 1911 711 L 1848 712 L 1844 706" stroke-miterlimit="10" />
        </g>
        <g transform="translate(-966,-270) scale(1,1)">
            <path fill="none" stroke="#000000" d="M 1853.1397682256109 712.1208362812703 L 1844 706 L 1846.1347072497838 716.7908769318217" stroke-miterlimit="10" />
        </g>
        <g transform="translate(-966,-270) scale(1,1)">
            <g>
                <path fill="none" stroke="none" />
                <text fill="#000000" stroke="none" font-family="Arial" font-size="13px" font-style="normal" font-weight="normal" text-decoration="none" x="1863.220458984375" y="723.5">*</text>
            </g>
        </g>
        <g transform="translate(-966,-270) scale(1,1)">
            <rect fill="#C0C0C0" stroke="none" x="1247" y="287" width="88.31396484375" height="44" opacity="0.2" />
        </g>
        <g transform="translate(-966,-270) scale(1,1)">
            <rect fill="#eeff00" stroke="none" x="1240" y="280" width="88.31396484375" height="44" />
        </g>
        <g transform="translate(-966,-270) scale(1,1)">
            <path fill="none" stroke="#000000" d="M 1240 280 L 1328.31396484375 280 L 1328.31396484375 324 L 1240 324 L 1240 280 Z Z" stroke-miterlimit="10" />
        </g>
        <g transform="translate(-966,-270) scale(1,1)">
            <path fill="none" stroke="#000000" d="M 1240 305 L 1328.31396484375 305" stroke-miterlimit="10" />
        </g>
        <g transform="translate(-966,-270) scale(1,1)">
            <path fill="none" stroke="#000000" d="M 1240 315 L 1328.31396484375 315" stroke-miterlimit="10" />
        </g>
        <g transform="translate(-966,-270) scale(1,1)">
            <g>
                <path fill="none" stroke="none" />
                <text fill="#000000" stroke="none" font-family="Arial" font-size="13px" font-style="normal" font-weight="bold" text-decoration="none" x="1272.591552734375" y="299.5">App</text>
            </g>
        </g>
        <g transform="translate(-966,-270) scale(1,1)">
            <path fill="none" stroke="#000000" d="M 1284 325 L 1288 488 L 1426 559" stroke-miterlimit="10" />
        </g>
        <g transform="translate(-966,-270) scale(1,1)">
            <path fill="none" stroke="#000000" d="M 1415.0373908464533 558.0937988376886 L 1426 559 L 1418.889045715019 550.6074837410399" stroke-miterlimit="10" />
        </g>
        <g transform="translate(-966,-270) scale(1,1)">
            <g>
                <path fill="none" stroke="none" />
                <text fill="#000000" stroke="none" font-family="Arial" font-size="13px" font-style="normal" font-weight="normal" text-decoration="none" x="1397.5" y="566.5">1</text>
            </g>
        </g>
    </g>
</svg>