<svg version="1.1" xmlns="http://www.w3.org/2000/svg" xmlns:xlink="http://www.w3.org/1999/xlink" width="339.86083984375" height="352">
    <defs />
    <g>
        <g transform="translate(-254,-294) scale(1,1)">
            <path fill="#C0C0C0" stroke="none" d="M 422.7099609375 466.5 C 422.7099609375 460.1487248 427.8586857375 455 434.2099609375 455 C 440.5612361375 455 445.7099609375 460.1487248 445.7099609375 466.5 C 445.7099609375 472.8512752 440.5612361375 478 434.2099609375 478 C 427.8586857375 478 422.7099609375 472.8512752 422.7099609375 466.5 Z" opacity="0.2" />
        </g>
        <g transform="translate(-254,-294) scale(1,1)">
            <path fill="#ffffff" stroke="none" d="M 415.7099609375 459.5 C 415.7099609375 453.1487248 420.8586857375 448 427.2099609375 448 C 433.5612361375 448 438.7099609375 453.1487248 438.7099609375 459.5 C 438.7099609375 465.8512752 433.5612361375 471 427.2099609375 471 C 420.8586857375 471 415.7099609375 465.8512752 415.7099609375 459.5 Z" />
        </g>
        <g transform="translate(-254,-294) scale(1,1)">
            <path fill="none" stroke="#000000" d="M 415.7099609375 459.5 C 415.7099609375 453.1487248 420.8586857375 448 427.2099609375 448 C 433.5612361375 448 438.7099609375 453.1487248 438.7099609375 459.5 C 438.7099609375 465.8512752 433.5612361375 471 427.2099609375 471 C 420.8586857375 471 415.7099609375 465.8512752 415.7099609375 459.5 Z" stroke-miterlimit="10" />
        </g>
        <g transform="translate(-254,-294) scale(1,1)">
            <g>
                <path fill="none" stroke="none" />
                <text fill="#000000" stroke="none" font-family="Arial" font-size="13px" font-style="normal" font-weight="bold" text-decoration="none" x="399.38818359375" y="490.5">IStratégie</text>
            </g>
        </g>
        <g transform="translate(-254,-294) scale(1,1)">
            <rect fill="#C0C0C0" stroke="none" x="407" y="311" width="62.4599609375" height="44" opacity="0.2" />
        </g>
        <g transform="translate(-254,-294) scale(1,1)">
            <rect fill="#ffffff" stroke="none" x="400" y="304" width="62.4599609375" height="44" />
        </g>
        <g transform="translate(-254,-294) scale(1,1)">
            <path fill="none" stroke="#000000" d="M 400 304 L 462.4599609375 304 L 462.4599609375 348 L 400 348 L 400 304 Z Z" stroke-miterlimit="10" />
        </g>
        <g transform="translate(-254,-294) scale(1,1)">
            <path fill="none" stroke="#000000" d="M 400 329 L 462.4599609375 329" stroke-miterlimit="10" />
        </g>
        <g transform="translate(-254,-294) scale(1,1)">
            <path fill="none" stroke="#000000" d="M 400 339 L 462.4599609375 339" stroke-miterlimit="10" />
        </g>
        <g transform="translate(-254,-294) scale(1,1)">
            <g>
                <path fill="none" stroke="none" />
                <text fill="#000000" stroke="none" font-family="Arial" font-size="13px" font-style="normal" font-weight="bold" text-decoration="none" x="405.575927734375" y="323.5">Manager</text>
            </g>
        </g>
        <g transform="translate(-254,-294) scale(1,1)">
            <path fill="none" stroke="#000000" d="M 430 349 L 428 447" stroke-miterlimit="10" />
        </g>
        <g transform="translate(-254,-294) scale(1,1)">
            <path fill="none" stroke="#000000" d="M 423.9987169383965 436.7535501825791 L 428 447 L 432.4159997626793 436.9253314647073" stroke-miterlimit="10" />
        </g>
        <g transform="translate(-254,-294) scale(1,1)">
            <rect fill="#C0C0C0" stroke="none" x="271" y="599" width="71.86083984375" height="44" opacity="0.2" />
        </g>
        <g transform="translate(-254,-294) scale(1,1)">
            <rect fill="#ffffff" stroke="none" x="264" y="592" width="71.86083984375" height="44" />
        </g>
        <g transform="translate(-254,-294) scale(1,1)">
            <path fill="none" stroke="#000000" d="M 264 592 L 335.86083984375 592 L 335.86083984375 636 L 264 636 L 264 592 Z Z" stroke-miterlimit="10" />
        </g>
        <g transform="translate(-254,-294) scale(1,1)">
            <path fill="none" stroke="#000000" d="M 264 617 L 335.86083984375 617" stroke-miterlimit="10" />
        </g>
        <g transform="translate(-254,-294) scale(1,1)">
            <path fill="none" stroke="#000000" d="M 264 627 L 335.86083984375 627" stroke-miterlimit="10" />
        </g>
        <g transform="translate(-254,-294) scale(1,1)">
            <g>
                <path fill="none" stroke="none" />
                <text fill="#000000" stroke="none" font-family="Arial" font-size="13px" font-style="normal" font-weight="bold" text-decoration="none" x="270.299560546875" y="611.5">Stratégie1</text>
            </g>
        </g>
        <g transform="translate(-254,-294) scale(1,1)">
            <rect fill="#C0C0C0" stroke="none" x="519" y="599" width="71.86083984375" height="44" opacity="0.2" />
        </g>
        <g transform="translate(-254,-294) scale(1,1)">
            <rect fill="#ffffff" stroke="none" x="512" y="592" width="71.86083984375" height="44" />
        </g>
        <g transform="translate(-254,-294) scale(1,1)">
            <path fill="none" stroke="#000000" d="M 512 592 L 583.86083984375 592 L 583.86083984375 636 L 512 636 L 512 592 Z Z" stroke-miterlimit="10" />
        </g>
        <g transform="translate(-254,-294) scale(1,1)">
            <path fill="none" stroke="#000000" d="M 512 617 L 583.86083984375 617" stroke-miterlimit="10" />
        </g>
        <g transform="translate(-254,-294) scale(1,1)">
            <path fill="none" stroke="#000000" d="M 512 627 L 583.86083984375 627" stroke-miterlimit="10" />
        </g>
        <g transform="translate(-254,-294) scale(1,1)">
            <g>
                <path fill="none" stroke="none" />
                <text fill="#000000" stroke="none" font-family="Arial" font-size="13px" font-style="normal" font-weight="bold" text-decoration="none" x="518.299560546875" y="611.5">Stratégie2</text>
            </g>
        </g>
        <g transform="translate(-254,-294) scale(1,1)">
            <path fill="none" stroke="#000000" d="M 320 591 L 419.7368421052632 471" stroke-miterlimit="10" />
        </g>
        <g transform="translate(-254,-294) scale(1,1)">
            <path fill="none" stroke="#000000" d="M 528 591 L 433.63157894736844 471" stroke-miterlimit="10" />
        </g>
    </g>
</svg>