<svg version="1.1" xmlns="http://www.w3.org/2000/svg" xmlns:xlink="http://www.w3.org/1999/xlink" width="736.47412109375" height="435">
    <defs />
    <g>
        <g transform="translate(-406,-294) scale(1,1)">
            <rect fill="#C0C0C0" stroke="none" x="687" y="519" width="27.5966796875" height="15" opacity="0.2" />
        </g>
        <g transform="translate(-406,-294) scale(1,1)">
            <rect fill="#C0C0C0" stroke="none" x="687" y="533" width="68.99169921875" height="25" opacity="0.2" />
        </g>
        <g transform="translate(-406,-294) scale(1,1)">
            <rect fill="#ffadad" stroke="none" x="680" y="527" width="68.99169921875" height="24" />
        </g>
        <g transform="translate(-406,-294) scale(1,1)">
            <path fill="none" stroke="#000000" d="M 680 527 L 748.99169921875 527 L 748.99169921875 551 L 680 551 L 680 527 Z Z" stroke-miterlimit="10" />
        </g>
        <g transform="translate(-406,-294) scale(1,1)">
            <rect fill="#ffadad" stroke="none" x="680" y="512" width="27.5966796875" height="15" />
        </g>
        <g transform="translate(-406,-294) scale(1,1)">
            <path fill="none" stroke="#000000" d="M 680 512 L 707.5966796875 512 L 707.5966796875 527 L 680 527 L 680 512 Z Z" stroke-miterlimit="10" />
        </g>
        <g transform="translate(-406,-294) scale(1,1)">
            <rect fill="#ffadad" stroke="none" x="680" y="526" width="68.99169921875" height="25" />
        </g>
        <g transform="translate(-406,-294) scale(1,1)">
            <path fill="none" stroke="#000000" d="M 680 526 L 748.99169921875 526 L 748.99169921875 551 L 680 551 L 680 526 Z Z" stroke-miterlimit="10" />
        </g>
        <g transform="translate(-406,-294) scale(1,1)">
            <g>
                <path fill="none" stroke="none" />
                <text fill="#000000" stroke="none" font-family="Arial" font-size="13px" font-style="normal" font-weight="bold" text-decoration="none" x="693.17724609375" y="546.5">Modele</text>
            </g>
        </g>
        <g transform="translate(-406,-294) scale(1,1)">
            <rect fill="#C0C0C0" stroke="none" x="711" y="311" width="32.974414062500045" height="15" opacity="0.2" />
        </g>
        <g transform="translate(-406,-294) scale(1,1)">
            <rect fill="#C0C0C0" stroke="none" x="711" y="325" width="82.43603515625" height="25" opacity="0.2" />
        </g>
        <g transform="translate(-406,-294) scale(1,1)">
            <rect fill="#e2e2e2" stroke="none" x="704" y="319" width="82.43603515625" height="24" />
        </g>
        <g transform="translate(-406,-294) scale(1,1)">
            <path fill="none" stroke="#000000" d="M 704 319 L 786.43603515625 319 L 786.43603515625 343 L 704 343 L 704 319 Z Z" stroke-miterlimit="10" />
        </g>
        <g transform="translate(-406,-294) scale(1,1)">
            <rect fill="#e2e2e2" stroke="none" x="704" y="304" width="32.974414062500045" height="15" />
        </g>
        <g transform="translate(-406,-294) scale(1,1)">
            <path fill="none" stroke="#000000" d="M 704 304 L 736.9744140625 304 L 736.9744140625 319 L 704 319 L 704 304 Z Z" stroke-miterlimit="10" />
        </g>
        <g transform="translate(-406,-294) scale(1,1)">
            <rect fill="#e2e2e2" stroke="none" x="704" y="318" width="82.43603515625" height="25" />
        </g>
        <g transform="translate(-406,-294) scale(1,1)">
            <path fill="none" stroke="#000000" d="M 704 318 L 786.43603515625 318 L 786.43603515625 343 L 704 343 L 704 318 Z Z" stroke-miterlimit="10" />
        </g>
        <g transform="translate(-406,-294) scale(1,1)">
            <g>
                <path fill="none" stroke="none" />
                <text fill="#000000" stroke="none" font-family="Arial" font-size="13px" font-style="normal" font-weight="bold" text-decoration="none" x="711.258056640625" y="338.5">Test_Album</text>
            </g>
        </g>
        <g transform="translate(-406,-294) scale(1,1)">
            <rect fill="#C0C0C0" stroke="none" x="847" y="319" width="33.26894531250002" height="15" opacity="0.2" />
        </g>
        <g transform="translate(-406,-294) scale(1,1)">
            <rect fill="#C0C0C0" stroke="none" x="847" y="333" width="83.17236328125" height="25" opacity="0.2" />
        </g>
        <g transform="translate(-406,-294) scale(1,1)">
            <rect fill="#e2e2e2" stroke="none" x="840" y="327" width="83.17236328125" height="24" />
        </g>
        <g transform="translate(-406,-294) scale(1,1)">
            <path fill="none" stroke="#000000" d="M 840 327 L 923.17236328125 327 L 923.17236328125 351 L 840 351 L 840 327 Z Z" stroke-miterlimit="10" />
        </g>
        <g transform="translate(-406,-294) scale(1,1)">
            <rect fill="#e2e2e2" stroke="none" x="840" y="312" width="33.26894531250002" height="15" />
        </g>
        <g transform="translate(-406,-294) scale(1,1)">
            <path fill="none" stroke="#000000" d="M 840 312 L 873.2689453125 312 L 873.2689453125 327 L 840 327 L 840 312 Z Z" stroke-miterlimit="10" />
        </g>
        <g transform="translate(-406,-294) scale(1,1)">
            <rect fill="#e2e2e2" stroke="none" x="840" y="326" width="83.17236328125" height="25" />
        </g>
        <g transform="translate(-406,-294) scale(1,1)">
            <path fill="none" stroke="#000000" d="M 840 326 L 923.17236328125 326 L 923.17236328125 351 L 840 351 L 840 326 Z Z" stroke-miterlimit="10" />
        </g>
        <g transform="translate(-406,-294) scale(1,1)">
            <g>
                <path fill="none" stroke="none" />
                <text fill="#000000" stroke="none" font-family="Arial" font-size="13px" font-style="normal" font-weight="bold" text-decoration="none" x="847.62939453125" y="346.5">Test_Artiste</text>
            </g>
        </g>
        <g transform="translate(-406,-294) scale(1,1)">
            <rect fill="#C0C0C0" stroke="none" x="935" y="359" width="38.18203125000002" height="15" opacity="0.2" />
        </g>
        <g transform="translate(-406,-294) scale(1,1)">
            <rect fill="#C0C0C0" stroke="none" x="935" y="373" width="95.455078125" height="25" opacity="0.2" />
        </g>
        <g transform="translate(-406,-294) scale(1,1)">
            <rect fill="#e2e2e2" stroke="none" x="928" y="367" width="95.455078125" height="24" />
        </g>
        <g transform="translate(-406,-294) scale(1,1)">
            <path fill="none" stroke="#000000" d="M 928 367 L 1023.455078125 367 L 1023.455078125 391 L 928 391 L 928 367 Z Z" stroke-miterlimit="10" />
        </g>
        <g transform="translate(-406,-294) scale(1,1)">
            <rect fill="#e2e2e2" stroke="none" x="928" y="352" width="38.18203125000002" height="15" />
        </g>
        <g transform="translate(-406,-294) scale(1,1)">
            <path fill="none" stroke="#000000" d="M 928 352 L 966.18203125 352 L 966.18203125 367 L 928 367 L 928 352 Z Z" stroke-miterlimit="10" />
        </g>
        <g transform="translate(-406,-294) scale(1,1)">
            <rect fill="#e2e2e2" stroke="none" x="928" y="366" width="95.455078125" height="25" />
        </g>
        <g transform="translate(-406,-294) scale(1,1)">
            <path fill="none" stroke="#000000" d="M 928 366 L 1023.455078125 366 L 1023.455078125 391 L 928 391 L 928 366 Z Z" stroke-miterlimit="10" />
        </g>
        <g transform="translate(-406,-294) scale(1,1)">
            <g>
                <path fill="none" stroke="none" />
                <text fill="#000000" stroke="none" font-family="Arial" font-size="13px" font-style="normal" font-weight="bold" text-decoration="none" x="934.902587890625" y="386.5">Test_Morceau</text>
            </g>
        </g>
        <g transform="translate(-406,-294) scale(1,1)">
            <rect fill="#C0C0C0" stroke="none" x="1023" y="479" width="42.226757812499955" height="15" opacity="0.2" />
        </g>
        <g transform="translate(-406,-294) scale(1,1)">
            <rect fill="#C0C0C0" stroke="none" x="1023" y="493" width="105.56689453125" height="25" opacity="0.2" />
        </g>
        <g transform="translate(-406,-294) scale(1,1)">
            <rect fill="#e2e2e2" stroke="none" x="1016" y="487" width="105.56689453125" height="24" />
        </g>
        <g transform="translate(-406,-294) scale(1,1)">
            <path fill="none" stroke="#000000" d="M 1016 487 L 1121.56689453125 487 L 1121.56689453125 511 L 1016 511 L 1016 487 Z Z" stroke-miterlimit="10" />
        </g>
        <g transform="translate(-406,-294) scale(1,1)">
            <rect fill="#e2e2e2" stroke="none" x="1016" y="472" width="42.226757812499955" height="15" />
        </g>
        <g transform="translate(-406,-294) scale(1,1)">
            <path fill="none" stroke="#000000" d="M 1016 472 L 1058.2267578125 472 L 1058.2267578125 487 L 1016 487 L 1016 472 Z Z" stroke-miterlimit="10" />
        </g>
        <g transform="translate(-406,-294) scale(1,1)">
            <rect fill="#e2e2e2" stroke="none" x="1016" y="486" width="105.56689453125" height="25" />
        </g>
        <g transform="translate(-406,-294) scale(1,1)">
            <path fill="none" stroke="#000000" d="M 1016 486 L 1121.56689453125 486 L 1121.56689453125 511 L 1016 511 L 1016 486 Z Z" stroke-miterlimit="10" />
        </g>
        <g transform="translate(-406,-294) scale(1,1)">
            <g>
                <path fill="none" stroke="none" />
                <text fill="#000000" stroke="none" font-family="Arial" font-size="13px" font-style="normal" font-weight="bold" text-decoration="none" x="1024.349853515625" y="506.5">Test_Utilisateur</text>
            </g>
        </g>
        <g transform="translate(-406,-294) scale(1,1)">
            <rect fill="#C0C0C0" stroke="none" x="1031" y="559" width="43.3896484375" height="15" opacity="0.2" />
        </g>
        <g transform="translate(-406,-294) scale(1,1)">
            <rect fill="#C0C0C0" stroke="none" x="1031" y="573" width="108.47412109375" height="25" opacity="0.2" />
        </g>
        <g transform="translate(-406,-294) scale(1,1)">
            <rect fill="#e2e2e2" stroke="none" x="1024" y="567" width="108.47412109375" height="24" />
        </g>
        <g transform="translate(-406,-294) scale(1,1)">
            <path fill="none" stroke="#000000" d="M 1024 567 L 1132.47412109375 567 L 1132.47412109375 591 L 1024 591 L 1024 567 Z Z" stroke-miterlimit="10" />
        </g>
        <g transform="translate(-406,-294) scale(1,1)">
            <rect fill="#e2e2e2" stroke="none" x="1024" y="552" width="43.3896484375" height="15" />
        </g>
        <g transform="translate(-406,-294) scale(1,1)">
            <path fill="none" stroke="#000000" d="M 1024 552 L 1067.3896484375 552 L 1067.3896484375 567 L 1024 567 L 1024 552 Z Z" stroke-miterlimit="10" />
        </g>
        <g transform="translate(-406,-294) scale(1,1)">
            <rect fill="#e2e2e2" stroke="none" x="1024" y="566" width="108.47412109375" height="25" />
        </g>
        <g transform="translate(-406,-294) scale(1,1)">
            <path fill="none" stroke="#000000" d="M 1024 566 L 1132.47412109375 566 L 1132.47412109375 591 L 1024 591 L 1024 566 Z Z" stroke-miterlimit="10" />
        </g>
        <g transform="translate(-406,-294) scale(1,1)">
            <g>
                <path fill="none" stroke="none" />
                <text fill="#000000" stroke="none" font-family="Arial" font-size="13px" font-style="normal" font-weight="bold" text-decoration="none" x="1031.267578125" y="586.5">Test_Recherche</text>
            </g>
        </g>
        <g transform="translate(-406,-294) scale(1,1)">
            <rect fill="#C0C0C0" stroke="none" x="1015" y="623" width="34.4267578125" height="15" opacity="0.2" />
        </g>
        <g transform="translate(-406,-294) scale(1,1)">
            <rect fill="#C0C0C0" stroke="none" x="1015" y="637" width="86.06689453125" height="25" opacity="0.2" />
        </g>
        <g transform="translate(-406,-294) scale(1,1)">
            <rect fill="#e2e2e2" stroke="none" x="1008" y="631" width="86.06689453125" height="24" />
        </g>
        <g transform="translate(-406,-294) scale(1,1)">
            <path fill="none" stroke="#000000" d="M 1008 631 L 1094.06689453125 631 L 1094.06689453125 655 L 1008 655 L 1008 631 Z Z" stroke-miterlimit="10" />
        </g>
        <g transform="translate(-406,-294) scale(1,1)">
            <rect fill="#e2e2e2" stroke="none" x="1008" y="616" width="34.4267578125" height="15" />
        </g>
        <g transform="translate(-406,-294) scale(1,1)">
            <path fill="none" stroke="#000000" d="M 1008 616 L 1042.4267578125 616 L 1042.4267578125 631 L 1008 631 L 1008 616 Z Z" stroke-miterlimit="10" />
        </g>
        <g transform="translate(-406,-294) scale(1,1)">
            <rect fill="#e2e2e2" stroke="none" x="1008" y="630" width="86.06689453125" height="25" />
        </g>
        <g transform="translate(-406,-294) scale(1,1)">
            <path fill="none" stroke="#000000" d="M 1008 630 L 1094.06689453125 630 L 1094.06689453125 655 L 1008 655 L 1008 630 Z Z" stroke-miterlimit="10" />
        </g>
        <g transform="translate(-406,-294) scale(1,1)">
            <g>
                <path fill="none" stroke="none" />
                <text fill="#000000" stroke="none" font-family="Arial" font-size="13px" font-style="normal" font-weight="bold" text-decoration="none" x="1028.15966796875" y="650.5">Test_Tri</text>
            </g>
        </g>
        <g transform="translate(-406,-294) scale(1,1)">
            <path fill="none" stroke="#000000" d="M 742 344 L 717 511" stroke-miterlimit="10" stroke-dasharray="3" />
        </g>
        <g transform="translate(-406,-294) scale(1,1)">
            <path fill="none" stroke="#000000" d="M 714.3414649468872 500.32609765027945 L 717 511 L 722.6677205691323 501.57254310271134" stroke-miterlimit="10" />
        </g>
        <g transform="translate(-406,-294) scale(1,1)">
            <path fill="none" stroke="#000000" d="M 863 352 L 731 511" stroke-miterlimit="10" stroke-dasharray="3" />
        </g>
        <g transform="translate(-406,-294) scale(1,1)">
            <path fill="none" stroke="#000000" d="M 734.2526186266693 500.4918854179523 L 731 511 L 740.7303077659827 505.8695896090804" stroke-miterlimit="10" />
        </g>
        <g transform="translate(-406,-294) scale(1,1)">
            <path fill="none" stroke="#000000" d="M 941 392 L 747 511" stroke-miterlimit="10" stroke-dasharray="3" />
        </g>
        <g transform="translate(-406,-294) scale(1,1)">
            <path fill="none" stroke="#000000" d="M 753.4617481594519 502.097988388919 L 747 511 L 757.8638187182648 509.2744731654713" stroke-miterlimit="10" />
        </g>
        <g transform="translate(-406,-294) scale(1,1)">
            <path fill="none" stroke="#000000" d="M 1015 497 L 750 527" stroke-miterlimit="10" stroke-dasharray="3" />
        </g>
        <g transform="translate(-406,-294) scale(1,1)">
            <path fill="none" stroke="#000000" d="M 759.6246475311161 521.6740108992057 L 750 527 L 760.5716965454799 530.0396105260853" stroke-miterlimit="10" />
        </g>
        <g transform="translate(-406,-294) scale(1,1)">
            <path fill="none" stroke="#000000" d="M 1023 565 L 750 535" stroke-miterlimit="10" stroke-dasharray="3" />
        </g>
        <g transform="translate(-406,-294) scale(1,1)">
            <path fill="none" stroke="#000000" d="M 760.5616800340836 531.9257659722072 L 750 535 L 759.6420473008299 540.2944238448164" stroke-miterlimit="10" />
        </g>
        <g transform="translate(-406,-294) scale(1,1)">
            <path fill="none" stroke="#000000" d="M 1007 621 L 750 542" stroke-miterlimit="10" stroke-dasharray="3" />
        </g>
        <g transform="translate(-406,-294) scale(1,1)">
            <path fill="none" stroke="#000000" d="M 760.9509475658476 540.9623355985402 L 750 542 L 758.4772288190973 549.009749749361" stroke-miterlimit="10" />
        </g>
        <g transform="translate(-406,-294) scale(1,1)">
            <rect fill="#C0C0C0" stroke="none" x="879" y="671" width="55.518749999999955" height="15" opacity="0.2" />
        </g>
        <g transform="translate(-406,-294) scale(1,1)">
            <rect fill="#C0C0C0" stroke="none" x="879" y="685" width="138.796875" height="25" opacity="0.2" />
        </g>
        <g transform="translate(-406,-294) scale(1,1)">
            <rect fill="#e2e2e2" stroke="none" x="872" y="679" width="138.796875" height="24" />
        </g>
        <g transform="translate(-406,-294) scale(1,1)">
            <path fill="none" stroke="#000000" d="M 872 679 L 1010.796875 679 L 1010.796875 703 L 872 703 L 872 679 Z Z" stroke-miterlimit="10" />
        </g>
        <g transform="translate(-406,-294) scale(1,1)">
            <rect fill="#e2e2e2" stroke="none" x="872" y="664" width="55.518749999999955" height="15" />
        </g>
        <g transform="translate(-406,-294) scale(1,1)">
            <path fill="none" stroke="#000000" d="M 872 664 L 927.51875 664 L 927.51875 679 L 872 679 L 872 664 Z Z" stroke-miterlimit="10" />
        </g>
        <g transform="translate(-406,-294) scale(1,1)">
            <rect fill="#e2e2e2" stroke="none" x="872" y="678" width="138.796875" height="25" />
        </g>
        <g transform="translate(-406,-294) scale(1,1)">
            <path fill="none" stroke="#000000" d="M 872 678 L 1010.796875 678 L 1010.796875 703 L 872 703 L 872 678 Z Z" stroke-miterlimit="10" />
        </g>
        <g transform="translate(-406,-294) scale(1,1)">
            <g>
                <path fill="none" stroke="none" />
                <text fill="#000000" stroke="none" font-family="Arial" font-size="13px" font-style="normal" font-weight="bold" text-decoration="none" x="880.698974609375" y="698.5">Test_JoueurMorceau</text>
            </g>
        </g>
        <g transform="translate(-406,-294) scale(1,1)">
            <rect fill="#C0C0C0" stroke="none" x="1023" y="407" width="35.00820312499991" height="15" opacity="0.2" />
        </g>
        <g transform="translate(-406,-294) scale(1,1)">
            <rect fill="#C0C0C0" stroke="none" x="1023" y="421" width="87.5205078125" height="25" opacity="0.2" />
        </g>
        <g transform="translate(-406,-294) scale(1,1)">
            <rect fill="#e2e2e2" stroke="none" x="1016" y="415" width="87.5205078125" height="24" />
        </g>
        <g transform="translate(-406,-294) scale(1,1)">
            <path fill="none" stroke="#000000" d="M 1016 415 L 1103.5205078125 415 L 1103.5205078125 439 L 1016 439 L 1016 415 Z Z" stroke-miterlimit="10" />
        </g>
        <g transform="translate(-406,-294) scale(1,1)">
            <rect fill="#e2e2e2" stroke="none" x="1016" y="400" width="35.00820312499991" height="15" />
        </g>
        <g transform="translate(-406,-294) scale(1,1)">
            <path fill="none" stroke="#000000" d="M 1016 400 L 1051.008203125 400 L 1051.008203125 415 L 1016 415 L 1016 400 Z Z" stroke-miterlimit="10" />
        </g>
        <g transform="translate(-406,-294) scale(1,1)">
            <rect fill="#e2e2e2" stroke="none" x="1016" y="414" width="87.5205078125" height="25" />
        </g>
        <g transform="translate(-406,-294) scale(1,1)">
            <path fill="none" stroke="#000000" d="M 1016 414 L 1103.5205078125 414 L 1103.5205078125 439 L 1016 439 L 1016 414 Z Z" stroke-miterlimit="10" />
        </g>
        <g transform="translate(-406,-294) scale(1,1)">
            <g>
                <path fill="none" stroke="none" />
                <text fill="#000000" stroke="none" font-family="Arial" font-size="13px" font-style="normal" font-weight="bold" text-decoration="none" x="1023.6357421875" y="434.5">Test_Playlist</text>
            </g>
        </g>
        <g transform="translate(-406,-294) scale(1,1)">
            <path fill="none" stroke="#000000" d="M 1015 433 L 750 519" stroke-miterlimit="10" stroke-dasharray="3" />
        </g>
        <g transform="translate(-406,-294) scale(1,1)">
            <path fill="none" stroke="#000000" d="M 758.3669944782034 511.85903344065287 L 750 519 L 760.9657844120287 519.8669326553472" stroke-miterlimit="10" />
        </g>
        <g transform="translate(-406,-294) scale(1,1)">
            <path fill="none" stroke="#000000" d="M 911 663 L 745 552" stroke-miterlimit="10" stroke-dasharray="3" />
        </g>
        <g transform="translate(-406,-294) scale(1,1)">
            <path fill="none" stroke="#000000" d="M 755.7879016556486 554.1496925054652 L 745 552 L 751.1081362674024 561.148260563563" stroke-miterlimit="10" />
        </g>
        <g transform="translate(-406,-294) scale(1,1)">
            <rect fill="#C0C0C0" stroke="none" x="551" y="327" width="38.18203125000002" height="15" opacity="0.2" />
        </g>
        <g transform="translate(-406,-294) scale(1,1)">
            <rect fill="#C0C0C0" stroke="none" x="551" y="341" width="95.455078125" height="25" opacity="0.2" />
        </g>
        <g transform="translate(-406,-294) scale(1,1)">
            <rect fill="#e2e2e2" stroke="none" x="544" y="335" width="95.455078125" height="24" />
        </g>
        <g transform="translate(-406,-294) scale(1,1)">
            <path fill="none" stroke="#000000" d="M 544 335 L 639.455078125 335 L 639.455078125 359 L 544 359 L 544 335 Z Z" stroke-miterlimit="10" />
        </g>
        <g transform="translate(-406,-294) scale(1,1)">
            <rect fill="#e2e2e2" stroke="none" x="544" y="320" width="38.18203125000002" height="15" />
        </g>
        <g transform="translate(-406,-294) scale(1,1)">
            <path fill="none" stroke="#000000" d="M 544 320 L 582.18203125 320 L 582.18203125 335 L 544 335 L 544 320 Z Z" stroke-miterlimit="10" />
        </g>
        <g transform="translate(-406,-294) scale(1,1)">
            <rect fill="#e2e2e2" stroke="none" x="544" y="334" width="95.455078125" height="25" />
        </g>
        <g transform="translate(-406,-294) scale(1,1)">
            <path fill="none" stroke="#000000" d="M 544 334 L 639.455078125 334 L 639.455078125 359 L 544 359 L 544 334 Z Z" stroke-miterlimit="10" />
        </g>
        <g transform="translate(-406,-294) scale(1,1)">
            <g>
                <path fill="none" stroke="none" />
                <text fill="#000000" stroke="none" font-family="Arial" font-size="13px" font-style="normal" font-weight="bold" text-decoration="none" x="550.53759765625" y="354.5">Test_Manager</text>
            </g>
        </g>
        <g transform="translate(-406,-294) scale(1,1)">
            <path fill="none" stroke="#000000" d="M 604 360 L 701 511" stroke-miterlimit="10" stroke-dasharray="3" />
        </g>
        <g transform="translate(-406,-294) scale(1,1)">
            <path fill="none" stroke="#000000" d="M 691.9656010652009 504.72468041555646 L 701 511 L 699.0490362815318 500.17439421698623" stroke-miterlimit="10" />
        </g>
        <g transform="translate(-406,-294) scale(1,1)">
            <rect fill="#C0C0C0" stroke="none" x="679" y="687" width="41.9423828125" height="15" opacity="0.2" />
        </g>
        <g transform="translate(-406,-294) scale(1,1)">
            <rect fill="#C0C0C0" stroke="none" x="679" y="701" width="104.85595703125" height="25" opacity="0.2" />
        </g>
        <g transform="translate(-406,-294) scale(1,1)">
            <rect fill="#e2e2e2" stroke="none" x="672" y="695" width="104.85595703125" height="24" />
        </g>
        <g transform="translate(-406,-294) scale(1,1)">
            <path fill="none" stroke="#000000" d="M 672 695 L 776.85595703125 695 L 776.85595703125 719 L 672 719 L 672 695 Z Z" stroke-miterlimit="10" />
        </g>
        <g transform="translate(-406,-294) scale(1,1)">
            <rect fill="#e2e2e2" stroke="none" x="672" y="680" width="41.9423828125" height="15" />
        </g>
        <g transform="translate(-406,-294) scale(1,1)">
            <path fill="none" stroke="#000000" d="M 672 680 L 713.9423828125 680 L 713.9423828125 695 L 672 695 L 672 680 Z Z" stroke-miterlimit="10" />
        </g>
        <g transform="translate(-406,-294) scale(1,1)">
            <rect fill="#e2e2e2" stroke="none" x="672" y="694" width="104.85595703125" height="25" />
        </g>
        <g transform="translate(-406,-294) scale(1,1)">
            <path fill="none" stroke="#000000" d="M 672 694 L 776.85595703125 694 L 776.85595703125 719 L 672 719 L 672 694 Z Z" stroke-miterlimit="10" />
        </g>
        <g transform="translate(-406,-294) scale(1,1)">
            <g>
                <path fill="none" stroke="none" />
                <text fill="#000000" stroke="none" font-family="Arial" font-size="13px" font-style="normal" font-weight="bold" text-decoration="none" x="679.994384765625" y="714.5">Tests_Unitaires</text>
            </g>
        </g>
        <g transform="translate(-406,-294) scale(1,1)">
            <path fill="none" stroke="#000000" d="M 723 679 L 715 552" stroke-miterlimit="10" stroke-dasharray="3" />
        </g>
        <g transform="translate(-406,-294) scale(1,1)">
            <path fill="none" stroke="#000000" d="M 719.8400929943859 561.8779299352494 L 715 552 L 711.4377113366033 562.4072138192042" stroke-miterlimit="10" />
        </g>
        <g transform="translate(-406,-294) scale(1,1)">
            <rect fill="#C0C0C0" stroke="none" x="423" y="503" width="44.74042968750001" height="15" opacity="0.2" />
        </g>
        <g transform="translate(-406,-294) scale(1,1)">
            <rect fill="#C0C0C0" stroke="none" x="423" y="517" width="111.85107421875" height="25" opacity="0.2" />
        </g>
        <g transform="translate(-406,-294) scale(1,1)">
            <rect fill="#ffff91" stroke="none" x="416" y="511" width="111.85107421875" height="24" />
        </g>
        <g transform="translate(-406,-294) scale(1,1)">
            <path fill="none" stroke="#000000" d="M 416 511 L 527.85107421875 511 L 527.85107421875 535 L 416 535 L 416 511 Z Z" stroke-miterlimit="10" />
        </g>
        <g transform="translate(-406,-294) scale(1,1)">
            <rect fill="#ffff91" stroke="none" x="416" y="496" width="44.74042968750001" height="15" />
        </g>
        <g transform="translate(-406,-294) scale(1,1)">
            <path fill="none" stroke="#000000" d="M 416 496 L 460.7404296875 496 L 460.7404296875 511 L 416 511 L 416 496 Z Z" stroke-miterlimit="10" />
        </g>
        <g transform="translate(-406,-294) scale(1,1)">
            <rect fill="#ffff91" stroke="none" x="416" y="510" width="111.85107421875" height="25" />
        </g>
        <g transform="translate(-406,-294) scale(1,1)">
            <path fill="none" stroke="#000000" d="M 416 510 L 527.85107421875 510 L 527.85107421875 535 L 416 535 L 416 510 Z Z" stroke-miterlimit="10" />
        </g>
        <g transform="translate(-406,-294) scale(1,1)">
            <g>
                <path fill="none" stroke="none" />
                <text fill="#000000" stroke="none" font-family="Arial" font-size="13px" font-style="normal" font-weight="bold" text-decoration="none" x="423.746826171875" y="530.5">desaccordeVues</text>
            </g>
        </g>
        <g transform="translate(-406,-294) scale(1,1)">
            <path fill="none" stroke="#000000" d="M 529 519 L 679 529" stroke-miterlimit="10" stroke-dasharray="3" />
        </g>
        <g transform="translate(-406,-294) scale(1,1)">
            <path fill="none" stroke="#000000" d="M 668.5798209070276 532.5241832628826 L 679 529 L 669.1398468188526 524.1237945855094" stroke-miterlimit="10" />
        </g>
    </g>
</svg>